<svg width="19" height="20" viewBox="0 0 19 20" fill="none" xmlns="http://www.w3.org/2000/svg">
<path d="M10.4121 8.76256C11.0955 9.44598 11.0955 10.554 10.4121 11.2374L2.98744 18.6621C2.30402 19.3455 1.19598 19.3455 0.512563 18.6621C-0.170854 17.9786 -0.170854 16.8706 0.512563 16.1872L6.69975 10L0.512563 3.81282C-0.170854 3.1294 -0.170854 2.02136 0.512563 1.33794C1.19598 0.654524 2.30402 0.654524 2.98744 1.33794L10.4121 8.76256Z" fill="#1C3747"/>
<path d="M8.08802 11.2374C7.40461 10.554 7.40461 9.44598 8.08802 8.76256L15.5126 1.33794C16.1961 0.654524 17.3041 0.654524 17.9875 1.33794C18.6709 2.02136 18.6709 3.1294 17.9875 3.81282L11.8003 10L17.9875 16.1872C18.6709 16.8706 18.6709 17.9786 17.9875 18.6621C17.3041 19.3455 16.1961 19.3455 15.5126 18.6621L8.08802 11.2374Z" fill="#1C3747"/>
</svg>
