<svg width="234" height="40" viewBox="0 0 234 40" fill="none" xmlns="http://www.w3.org/2000/svg">
<path d="M19.3686 33.1605L22.5967 36.3782C20.1218 38.4143 17.2883 39.4323 14.096 39.4323C10.1146 39.4323 6.92235 38.1416 4.51918 35.5602C2.11601 32.9424 0.914429 29.6883 0.914429 25.798C0.914429 21.9804 2.16981 18.7627 4.68059 16.145C7.22723 13.4908 10.3657 12.1637 14.096 12.1637C17.2883 12.1637 20.1218 13.1818 22.5967 15.2178L19.4224 18.4901C17.9159 17.3266 16.1405 16.7449 14.096 16.7449C11.6211 16.7449 9.64833 17.5811 8.17774 19.2536C6.74301 20.8897 6.02564 23.0712 6.02564 25.798C6.02564 28.5249 6.74301 30.7246 8.17774 32.397C9.64833 34.0331 11.6211 34.8512 14.096 34.8512C16.1763 34.8512 17.9339 34.2876 19.3686 33.1605Z" fill="white"/>
<path d="M48.5647 38.8869H39.257C35.2756 38.8869 32.4241 38.287 30.7024 37.0872C29.1601 36.0328 28.1737 34.7785 27.7433 33.3242C27.3487 31.8335 27.1514 29.8883 27.1514 27.4887V12.7091H31.886V27.4341C31.886 28.0886 31.904 28.6521 31.9398 29.1248C31.9757 29.5611 32.1012 30.1428 32.3165 30.87C32.5317 31.5608 32.8365 32.1425 33.2311 32.6152C33.6256 33.0515 34.1995 33.4514 34.9528 33.815C35.706 34.1422 36.6206 34.3058 37.6967 34.3058H43.8301V12.7091H48.5647V38.8869Z" fill="white"/>
<path d="M54.5065 38.8869V23.9983C54.5065 19.8171 55.2777 16.9267 56.82 15.3269C57.5733 14.527 58.4879 13.9271 59.5639 13.5272C60.64 13.1272 61.5726 12.8909 62.3617 12.8182C63.1866 12.7455 64.2986 12.7091 65.6974 12.7091H70.432V17.2902H64.729C64.0116 17.2902 63.4556 17.3084 63.0611 17.3448C62.6665 17.3811 62.2003 17.5084 61.6622 17.7265C61.1242 17.9447 60.6579 18.2901 60.2634 18.7627C59.5819 19.6353 59.2411 21.3805 59.2411 23.9983V38.8869H54.5065Z" fill="white"/>
<path d="M90.9467 24.0773V28.9856C89.5837 27.9313 85.2475 26.8342 83.2748 26.8342C81.589 26.8342 80.2798 27.1796 79.3472 27.8704C78.4146 28.5249 77.9483 29.4702 77.9483 30.7064C77.9483 33.106 79.7059 34.3058 83.221 34.3058H90.3229V23.8892C90.3229 19.4899 88.2066 17.2902 83.9742 17.2902H75.3658V12.7091H84.2432C87.7224 12.7091 90.3946 13.5817 92.2598 15.3269C94.1249 17.0721 95.0575 19.5808 95.0575 22.853V38.8869H83.0596C80.0108 38.8869 77.5897 38.1961 75.7963 36.8145C74.0028 35.4329 73.1061 33.4151 73.1061 30.7609C73.1061 28.1068 74.0567 26.0889 75.9577 24.7073C77.8587 23.3257 80.2439 22.6349 83.1134 22.6349C84.7274 22.6349 89.6227 23.4097 90.9467 24.0773Z" fill="white"/>
<path d="M100.972 0.710938H105.814V25.798C105.814 28.6703 106.532 30.9063 107.966 32.5061C109.437 34.0695 111.445 34.8512 113.992 34.8512C116.646 34.8512 118.727 34.0877 120.233 32.5606C121.74 30.9972 122.493 28.743 122.493 25.798C122.493 22.9985 121.668 20.7988 120.018 19.199C118.404 17.5629 116.27 16.7449 113.615 16.7449C111.356 16.7449 106.499 18.7627 104.849 20.0716V15.1633C106.173 13.3955 111.858 12.1637 114.153 12.1637C117.956 12.1637 121.094 13.4181 123.569 15.9268C126.08 18.3992 127.335 21.6896 127.335 25.798C127.335 30.1246 126.026 33.4878 123.407 35.8874C120.825 38.2507 117.561 39.4323 113.615 39.4323C109.849 39.4323 106.801 38.1961 104.469 35.7238C102.138 33.2514 100.972 29.9429 100.972 25.798V0.710938Z" fill="white"/>
<path d="M139.964 38.8869H135.229V17.2902H130.817L132.97 12.7091H139.964V38.8869ZM135.014 7.2554C134.548 6.63731 134.315 5.96469 134.315 5.23752C134.315 4.51036 134.548 3.85591 135.014 3.27418C135.48 2.6561 136.198 2.34705 137.166 2.34705C138.135 2.34705 138.852 2.6561 139.318 3.27418C139.785 3.85591 140.018 4.51036 140.018 5.23752C140.018 5.96469 139.785 6.63731 139.318 7.2554C138.852 7.83713 138.135 8.12799 137.166 8.12799C136.198 8.12799 135.48 7.83713 135.014 7.2554Z" fill="white"/>
<path d="M144.466 17.2902L154.096 7.52808V12.7091H161.36V17.2902H154.096V28.5249C154.096 29.7974 154.293 30.8518 154.688 31.688C155.118 32.5243 155.728 33.1242 156.517 33.4878C157.306 33.815 158.042 34.0331 158.723 34.1422C159.441 34.2513 160.319 34.3058 161.36 34.3058V38.8869C157.235 38.8869 154.186 38.0871 152.213 36.4873C150.24 34.8876 149.254 32.2334 149.254 28.5249V17.2902H144.466Z" fill="white"/>
<path d="M183.627 24.5098V29.4182C182.264 28.3638 177.825 26.8342 175.853 26.8342C174.167 26.8342 172.858 27.1796 171.925 27.8704C170.992 28.5249 170.526 29.4702 170.526 30.7064C170.526 33.106 172.284 34.3058 175.799 34.3058H182.901V23.8892C182.901 19.4899 180.784 17.2902 176.552 17.2902H167.944V12.7091H176.821C180.3 12.7091 182.972 13.5817 184.837 15.3269C186.703 17.0721 187.635 19.5808 187.635 22.853V38.8869H175.637C172.589 38.8869 170.167 38.1961 168.374 36.8145C166.581 35.4329 165.684 33.4151 165.684 30.7609C165.684 28.1068 166.634 26.0889 168.535 24.7073C170.436 23.3257 172.822 22.6349 175.691 22.6349C177.305 22.6349 181.641 23.4097 183.627 24.5098Z" fill="white"/>
<path d="M192.743 38.8869V23.9983C192.743 19.8171 193.514 16.9267 195.056 15.3269C195.809 14.527 196.724 13.9271 197.8 13.5272C198.876 13.1272 199.809 12.8909 200.598 12.8182C201.423 12.7455 202.535 12.7091 203.934 12.7091H208.668V17.2902H202.965C202.248 17.2902 201.692 17.3084 201.297 17.3448C200.903 17.3811 200.436 17.5084 199.898 17.7265C199.36 17.9447 198.894 18.2901 198.499 18.7627C197.818 19.6353 197.477 21.3805 197.477 23.9983V38.8869H192.743Z" fill="white"/>
<path d="M224.793 12.1637C230.89 12.4182 233.939 14.9815 233.939 19.8535C233.939 25.9253 230.012 28.9612 222.157 28.9612H215.554V24.7618H222.533C224.936 24.7618 226.604 24.3982 227.537 23.6711C228.469 22.9076 228.936 21.6532 228.936 19.908C228.936 18.7809 228.523 17.9447 227.698 17.3993C226.873 16.8176 225.815 16.5267 224.524 16.5267C221.977 16.5267 219.969 17.4357 218.498 19.2536C217.063 21.0715 216.346 23.253 216.346 25.798C216.346 28.4885 217.117 30.67 218.659 32.3425C220.238 34.015 222.282 34.8512 224.793 34.8512C227.053 34.8512 228.9 34.2876 230.334 33.1605L233.563 36.3782C231.088 38.4143 228.164 39.4323 224.793 39.4323C220.704 39.4323 217.44 38.2143 215.001 35.7783C212.562 33.3423 211.342 30.1974 211.342 26.3434C211.342 22.0531 212.544 18.5809 214.947 15.9268C217.35 13.2727 220.632 12.0183 224.793 12.1637Z" fill="white"/>
</svg>
