<svg width="234" height="50" viewBox="0 0 234 50" fill="none" xmlns="http://www.w3.org/2000/svg">
<path d="M22.2519 30.2777C21.7138 32.7946 20.9424 35.1497 19.9378 37.343C18.9332 39.5004 17.8569 41.388 16.7088 43.0061C15.5966 44.6241 14.4665 45.9005 13.3184 46.8353C12.1703 47.7702 11.1837 48.2736 10.3585 48.3455C9.42569 48.3455 8.38524 47.878 7.23716 46.9432C6.12495 46.0084 5.04863 44.7139 4.00818 43.06C3.00361 41.3701 2.16048 39.3745 1.47881 37.0734C0.797136 34.7722 0.456299 32.2733 0.456299 29.5766C0.456299 27.2035 0.653625 25.4057 1.04828 24.1832C1.47881 22.9607 1.74789 22.2596 1.85552 22.0798C2.03491 21.7562 2.26812 21.5045 2.55514 21.3248C2.87803 21.145 3.23681 21.0551 3.63146 21.0551C4.24138 21.0551 4.72573 21.2708 5.0845 21.7023C5.44328 22.0978 5.62267 22.5473 5.62267 23.0506C5.62267 23.4102 5.55091 23.7158 5.4074 23.9675C5.37152 24.0394 5.21008 24.5248 4.92306 25.4237C4.63603 26.3226 4.49252 27.6709 4.49252 29.4687C4.49252 31.5901 4.70779 33.5497 5.13832 35.3475C5.56885 37.1453 6.08908 38.6914 6.699 39.9858C7.30891 41.2802 7.93677 42.3049 8.58257 43.06C9.26424 43.7791 9.82034 44.1387 10.2509 44.1387C10.5379 44.1387 10.9505 43.869 11.4886 43.3297C12.0627 42.7903 12.6547 42.0532 13.2646 41.1184C13.9104 40.1835 14.5562 39.0689 15.202 37.7745C15.8837 36.4801 16.4936 35.0778 17.0317 33.5677C17.6058 32.0216 18.0542 30.4036 18.3771 28.7137C18.7359 26.9878 18.9153 25.2439 18.9153 23.4821C18.9153 23.1225 18.8974 22.781 18.8615 22.4574C18.8615 22.0978 18.8615 21.7382 18.8615 21.3787C18.8615 20.7674 19.0409 20.2641 19.3997 19.8685C19.7943 19.4371 20.2966 19.2213 20.9065 19.2213C21.3729 19.2213 21.7855 19.3652 22.1443 19.6528C22.5389 19.9405 22.7901 20.336 22.8977 20.8394C22.8977 20.8034 22.9695 21.091 23.113 21.7023C23.2565 22.3135 23.4897 23.1046 23.8126 24.0754C24.1714 25.0102 24.6019 26.035 25.1042 27.1496C25.6423 28.2642 26.2702 29.3069 26.9878 30.2777C27.7412 31.2126 28.6022 32.0036 29.5709 32.6508C30.5396 33.298 31.6518 33.6216 32.9076 33.6216C33.5892 33.6216 34.1812 33.4778 34.6835 33.1901C35.1858 32.9025 35.5984 32.5789 35.9213 32.2193C36.2442 31.8598 36.4774 31.5182 36.6209 31.1946C36.8003 30.871 36.89 30.6912 36.89 30.6553C37.0335 30.2598 37.2667 29.9541 37.5896 29.7384C37.9484 29.4867 38.343 29.3609 38.7735 29.3609C39.3476 29.3609 39.8319 29.5766 40.2266 30.0081C40.6212 30.4036 40.8186 30.871 40.8186 31.4103C40.8186 31.662 40.7647 31.9137 40.6571 32.1654C40.4418 32.6688 40.1189 33.2441 39.6884 33.8913C39.2938 34.5385 38.7735 35.1497 38.1277 35.725C37.4819 36.3003 36.7106 36.7857 35.8136 37.1812C34.9526 37.5408 33.9839 37.7206 32.9076 37.7206C31.6518 37.7206 30.4858 37.5048 29.4095 37.0734C28.3332 36.6059 27.3465 36.0306 26.4496 35.3475C25.5885 34.6284 24.7992 33.8373 24.0817 32.9744C23.3641 32.0755 22.7542 31.1766 22.2519 30.2777Z" fill="white"/>
<path d="M45.7158 4.92895C45.7158 6.29527 45.2315 7.46383 44.2628 8.43463C43.33 9.36948 42.1819 9.83691 40.8186 9.83691C39.4552 9.83691 38.2892 9.36948 37.3205 8.43463C36.3877 7.46383 35.9213 6.29527 35.9213 4.92895C35.9213 4.24579 36.0468 3.61657 36.298 3.04128C36.5491 2.43003 36.89 1.90867 37.3205 1.4772C37.7869 1.00978 38.3071 0.650221 38.8812 0.398531C39.4911 0.146841 40.1369 0.0209961 40.8186 0.0209961C41.5002 0.0209961 42.1281 0.146841 42.7021 0.398531C43.312 0.650221 43.8323 1.00978 44.2628 1.4772C44.7292 1.90867 45.088 2.43003 45.3391 3.04128C45.5903 3.61657 45.7158 4.24579 45.7158 4.92895ZM36.9976 36.534C36.9976 31.3564 37.3205 26.1968 37.9663 21.0551C38.038 20.5517 38.2533 20.1202 38.6121 19.7607C39.0067 19.3652 39.509 19.1674 40.1189 19.1674C40.6571 19.1674 41.1056 19.3831 41.4644 19.8146C41.8231 20.2101 42.0025 20.6776 42.0025 21.2169C42.0025 21.4326 41.9487 22.0798 41.8411 23.1585C41.7693 24.2372 41.6617 25.5316 41.5182 27.0417C41.4105 28.5159 41.3029 30.0979 41.1953 31.7879C41.1235 33.4418 41.0876 34.9699 41.0876 36.3722C41.0876 38.2779 41.267 39.824 41.6258 41.0105C42.0205 42.1611 42.5048 43.06 43.0788 43.7072C43.6888 44.3544 44.3166 44.7859 44.9624 45.0016C45.6441 45.2173 46.2899 45.3252 46.8998 45.3252C47.9044 45.3252 48.9448 44.9656 50.0212 44.2465C51.0975 43.5274 52.1917 42.5206 53.304 41.2262C54.452 39.9318 55.6001 38.3857 56.7482 36.588C57.8963 34.7542 59.0264 32.7227 60.1386 30.4935C60.318 30.1339 60.5692 29.8642 60.8921 29.6845C61.215 29.4687 61.5737 29.3609 61.9684 29.3609C62.5424 29.3609 63.0088 29.5766 63.3676 30.0081C63.7623 30.4395 63.9596 30.907 63.9596 31.4103C63.9596 31.7699 63.8878 32.0755 63.7443 32.3272C63.3138 33.1542 62.7756 34.1609 62.1298 35.3475C61.484 36.534 60.7485 37.7565 59.9234 39.015C59.0982 40.2734 58.1833 41.5319 57.1787 42.7903C56.21 44.0128 55.1696 45.1274 54.0574 46.1342C52.9452 47.105 51.7792 47.896 50.5593 48.5073C49.3395 49.1185 48.1017 49.4241 46.846 49.4241C45.2315 49.4241 43.8143 49.0826 42.5945 48.3994C41.3747 47.7162 40.3342 46.7994 39.4731 45.6488C38.648 44.4982 38.0201 43.1499 37.5896 41.6038C37.1949 40.0217 36.9976 38.3318 36.9976 36.534ZM42.7021 4.92895C42.7021 4.42557 42.5048 3.9941 42.1101 3.63455C41.7514 3.23903 41.3208 3.04128 40.8186 3.04128C40.3163 3.04128 39.8857 3.23903 39.527 3.63455C39.1682 3.9941 38.9888 4.42557 38.9888 4.92895C38.9888 5.43233 39.1682 5.8638 39.527 6.22336C39.8857 6.58291 40.3163 6.76269 40.8186 6.76269C41.3208 6.76269 41.7514 6.58291 42.1101 6.22336C42.5048 5.8638 42.7021 5.43233 42.7021 4.92895Z" fill="white"/>
<path d="M81.8804 30.2777C81.3423 32.7946 80.5709 35.1497 79.5663 37.343C78.5618 39.5004 77.4854 41.388 76.3373 43.0061C75.2251 44.6241 74.095 45.9005 72.9469 46.8353C71.7988 47.7702 70.8122 48.2736 69.987 48.3455C69.0542 48.3455 68.0137 47.878 66.8657 46.9432C65.7535 46.0084 64.6771 44.7139 63.6367 43.06C62.6321 41.3701 61.789 39.3745 61.1073 37.0734C60.4256 34.7722 60.0848 32.2733 60.0848 29.5766C60.0848 27.2035 60.2821 25.4057 60.6768 24.1832C61.1073 22.9607 61.3764 22.2596 61.484 22.0798C61.6634 21.7562 61.8966 21.5045 62.1836 21.3248C62.5065 21.145 62.8653 21.0551 63.26 21.0551C63.8699 21.0551 64.3542 21.2708 64.713 21.7023C65.0718 22.0978 65.2512 22.5473 65.2512 23.0506C65.2512 23.4102 65.1794 23.7158 65.0359 23.9675C65 24.0394 64.8386 24.5248 64.5516 25.4237C64.2645 26.3226 64.121 27.6709 64.121 29.4687C64.121 31.5901 64.3363 33.5497 64.7668 35.3475C65.1974 37.1453 65.7176 38.6914 66.3275 39.9858C66.9374 41.2802 67.5653 42.3049 68.2111 43.06C68.8928 43.7791 69.4489 44.1387 69.8794 44.1387C70.1664 44.1387 70.579 43.869 71.1172 43.3297C71.6912 42.7903 72.2832 42.0532 72.8931 41.1184C73.5389 40.1835 74.1847 39.0689 74.8305 37.7745C75.5122 36.4801 76.1221 35.0778 76.6602 33.5677C77.2343 32.0216 77.6828 30.4036 78.0057 28.7137C78.3644 26.9878 78.5438 25.2439 78.5438 23.4821C78.5438 23.1225 78.5259 22.781 78.49 22.4574C78.49 22.0978 78.49 21.7382 78.49 21.3787C78.49 20.7674 78.6694 20.2641 79.0282 19.8685C79.4228 19.4371 79.9251 19.2213 80.535 19.2213C81.0014 19.2213 81.414 19.3652 81.7728 19.6528C82.1674 19.9405 82.4186 20.336 82.5262 20.8394C82.5262 20.8034 82.598 21.091 82.7415 21.7023C82.885 22.3135 83.1182 23.1046 83.4411 24.0754C83.7999 25.0102 84.2304 26.035 84.7327 27.1496C85.2709 28.2642 85.8987 29.3069 86.6163 30.2777C87.3697 31.2126 88.2308 32.0036 89.1995 32.6508C90.1681 33.298 91.2803 33.6216 92.5361 33.6216C93.2177 33.6216 93.8097 33.4778 94.312 33.1901C94.8143 32.9025 95.2269 32.5789 95.5498 32.2193C95.8727 31.8598 96.1059 31.5182 96.2494 31.1946C96.4288 30.871 96.5185 30.6912 96.5185 30.6553C96.662 30.2598 96.8952 29.9541 97.2181 29.7384C97.5769 29.4867 97.9715 29.3609 98.402 29.3609C98.9761 29.3609 99.4604 29.5766 99.8551 30.0081C100.25 30.4036 100.447 30.871 100.447 31.4103C100.447 31.662 100.393 31.9137 100.286 32.1654C100.07 32.6688 99.7475 33.2441 99.3169 33.8913C98.9223 34.5385 98.402 35.1497 97.7562 35.725C97.1105 36.3003 96.3391 36.7857 95.4421 37.1812C94.5811 37.5408 93.6124 37.7206 92.5361 37.7206C91.2803 37.7206 90.1143 37.5048 89.038 37.0734C87.9617 36.6059 86.975 36.0306 86.0781 35.3475C85.217 34.6284 84.4277 33.8373 83.7102 32.9744C82.9926 32.0755 82.3827 31.1766 81.8804 30.2777Z" fill="white"/>
<path d="M103.03 41.3341C103.784 42.3768 104.752 43.2218 105.936 43.869C107.12 44.4802 108.573 44.7859 110.295 44.7859C112.053 44.7859 113.65 44.3724 115.085 43.5454C116.52 42.6824 117.83 41.5678 119.014 40.2015C120.198 38.8352 121.256 37.3071 122.189 35.6172C123.122 33.9272 123.965 32.2373 124.718 30.5474C124.898 30.1519 125.149 29.8642 125.472 29.6845C125.795 29.4687 126.153 29.3609 126.548 29.3609C127.158 29.3609 127.642 29.5766 128.001 30.0081C128.396 30.4395 128.593 30.907 128.593 31.4103C128.593 31.5901 128.575 31.7519 128.539 31.8957C128.503 32.0036 128.45 32.1294 128.378 32.2733C125.902 37.7385 123.193 41.8555 120.251 44.6241C117.345 47.3926 114.045 48.8129 110.349 48.8848C107.981 48.8848 105.936 48.4174 104.214 47.4825C102.492 46.5836 101.075 45.4151 99.9627 43.9769C98.8505 42.5027 98.0253 40.8487 97.4872 39.015C96.949 37.1812 96.6799 35.3475 96.6799 33.5137C96.6799 31.68 96.8952 29.9901 97.3257 28.444C97.7921 26.8979 98.4379 25.5496 99.2631 24.399C100.124 23.2484 101.129 22.3495 102.277 21.7023C103.461 21.0551 104.752 20.7315 106.152 20.7315C106.977 20.7315 107.784 20.9113 108.573 21.2708C109.399 21.5944 110.134 22.0798 110.78 22.727C111.426 23.3383 111.946 24.0933 112.34 24.9922C112.735 25.8911 112.932 26.9159 112.932 28.0665C112.932 29.5406 112.681 30.9249 112.179 32.2193C111.677 33.5137 110.977 34.7183 110.08 35.8329C109.219 36.9475 108.179 37.9723 106.959 38.9071C105.739 39.8419 104.429 40.651 103.03 41.3341ZM101.416 37.8284C102.528 37.361 103.533 36.7677 104.429 36.0486C105.362 35.3295 106.152 34.5385 106.797 33.6755C107.443 32.8126 107.945 31.9137 108.304 30.9789C108.663 30.0081 108.842 29.0373 108.842 28.0665C108.842 26.9878 108.573 26.1788 108.035 25.6394C107.497 25.0641 106.869 24.7765 106.152 24.7765C105.183 24.7765 104.358 25.0462 103.676 25.5855C102.994 26.1248 102.438 26.826 102.008 27.6889C101.577 28.5519 101.254 29.5227 101.039 30.6013C100.86 31.644 100.77 32.6868 100.77 33.7295C100.77 34.3767 100.824 35.0598 100.931 35.779C101.075 36.4981 101.236 37.1812 101.416 37.8284Z" fill="white"/>
<path d="M130.423 25.1001C130.279 26.0709 130.1 26.9878 129.885 27.8507C129.669 28.6777 129.454 29.4148 129.239 30.062C129.059 30.6732 128.898 31.1766 128.754 31.5721C128.611 31.9676 128.521 32.1834 128.485 32.2193C128.127 33.0463 127.499 33.4598 126.602 33.4598C126.1 33.4598 125.633 33.28 125.203 32.9205C124.772 32.525 124.557 32.0396 124.557 31.4643C124.557 31.2485 124.593 31.0867 124.664 30.9789C124.736 30.871 124.844 30.6553 124.987 30.3317C125.131 30.0081 125.31 29.4687 125.525 28.7137C125.741 27.9586 126.01 26.79 126.333 25.208C125.723 25.208 125.095 25.19 124.449 25.154C123.803 25.1181 123.211 24.9922 122.673 24.7765C122.099 24.5608 121.633 24.2192 121.274 23.7518C120.915 23.2843 120.736 22.6371 120.736 21.8102C120.736 21.1989 120.915 20.3719 121.274 19.3292C121.597 18.2865 122.045 17.2618 122.619 16.255C123.193 15.2482 123.839 14.3853 124.557 13.6662C125.274 12.9111 125.992 12.5336 126.709 12.5336C127.535 12.5336 128.198 12.8392 128.701 13.4505C129.239 14.0617 129.651 14.8168 129.938 15.7157C130.225 16.5786 130.423 17.4955 130.53 18.4663C130.674 19.4371 130.746 20.282 130.746 21.0012C131.356 21.0012 131.948 21.0012 132.522 21.0012C133.132 20.9652 133.706 20.9472 134.244 20.9472C136.289 20.9472 137.849 21.3967 138.926 22.2956C140.002 23.1945 140.54 24.6686 140.54 26.7181C140.54 27.5451 140.486 28.408 140.379 29.3069C140.271 30.2058 140.146 31.1407 140.002 32.1115C139.859 33.0463 139.733 33.9812 139.625 34.916C139.518 35.8509 139.464 36.7677 139.464 37.6666C139.464 38.961 139.643 40.0397 140.002 40.9026C140.361 41.7296 140.809 42.3948 141.347 42.8982C141.886 43.4016 142.46 43.7611 143.07 43.9769C143.68 44.1566 144.236 44.2465 144.738 44.2465C146.281 44.2465 147.734 43.7431 149.097 42.7364C150.46 41.7296 151.716 40.5251 152.864 39.1228C154.012 37.6846 155.035 36.1745 155.932 34.5924C156.865 33.0104 157.636 31.6261 158.246 30.4395C158.425 30.1159 158.676 29.8642 158.999 29.6845C159.322 29.5047 159.663 29.4148 160.022 29.4148C160.668 29.4148 161.17 29.6305 161.529 30.062C161.887 30.4575 162.067 30.907 162.067 31.4103C162.067 31.7699 161.995 32.0935 161.852 32.3811C161.026 33.8553 160.058 35.5273 158.945 37.397C157.869 39.2307 156.631 40.9566 155.232 42.5746C153.833 44.1926 152.254 45.5589 150.496 46.6735C148.774 47.7882 146.873 48.3455 144.792 48.3455C143.5 48.3455 142.28 48.0938 141.132 47.5904C139.984 47.123 138.98 46.4398 138.119 45.5409C137.293 44.6061 136.63 43.4735 136.127 42.1431C135.625 40.7768 135.374 39.2487 135.374 37.5588C135.374 35.761 135.553 33.9812 135.912 32.2193C136.271 30.4216 136.45 28.7137 136.45 27.0956C136.45 26.4125 136.289 25.9091 135.966 25.5855C135.679 25.226 135.015 25.0462 133.975 25.0462C133.472 25.0462 132.916 25.0462 132.306 25.0462C131.732 25.0462 131.104 25.0641 130.423 25.1001ZM126.817 21.109C126.817 20.8573 126.799 20.5337 126.763 20.1382C126.763 19.7067 126.727 19.2933 126.656 18.8977C126.62 18.5022 126.548 18.1607 126.44 17.873C126.369 17.5854 126.279 17.4415 126.171 17.4415C126.064 17.4415 125.92 17.5854 125.741 17.873C125.597 18.1247 125.436 18.4483 125.256 18.8438C125.077 19.2034 124.916 19.5989 124.772 20.0303C124.629 20.4618 124.521 20.8214 124.449 21.109H126.817Z" fill="white"/>
<path d="M163.897 25.1001C163.753 26.0709 163.574 26.9878 163.358 27.8507C163.143 28.6777 162.928 29.4148 162.713 30.062C162.533 30.6732 162.372 31.1766 162.228 31.5721C162.085 31.9676 161.995 32.1834 161.959 32.2193C161.6 33.0463 160.973 33.4598 160.076 33.4598C159.573 33.4598 159.107 33.28 158.676 32.9205C158.246 32.525 158.031 32.0396 158.031 31.4643C158.031 31.2485 158.066 31.0867 158.138 30.9789C158.21 30.871 158.318 30.6553 158.461 30.3317C158.605 30.0081 158.784 29.4687 158.999 28.7137C159.215 27.9586 159.484 26.79 159.807 25.208C159.197 25.208 158.569 25.19 157.923 25.154C157.277 25.1181 156.685 24.9922 156.147 24.7765C155.573 24.5608 155.107 24.2192 154.748 23.7518C154.389 23.2843 154.21 22.6371 154.21 21.8102C154.21 21.1989 154.389 20.3719 154.748 19.3292C155.071 18.2865 155.519 17.2618 156.093 16.255C156.667 15.2482 157.313 14.3853 158.031 13.6662C158.748 12.9111 159.466 12.5336 160.183 12.5336C161.008 12.5336 161.672 12.8392 162.174 13.4505C162.713 14.0617 163.125 14.8168 163.412 15.7157C163.699 16.5786 163.897 17.4955 164.004 18.4663C164.148 19.4371 164.219 20.282 164.219 21.0012C164.829 21.0012 165.421 21.0012 165.995 21.0012C166.605 20.9652 167.179 20.9472 167.717 20.9472C169.763 20.9472 171.323 21.3967 172.4 22.2956C173.476 23.1945 174.014 24.6686 174.014 26.7181C174.014 27.5451 173.96 28.408 173.853 29.3069C173.745 30.2058 173.619 31.1407 173.476 32.1115C173.332 33.0463 173.207 33.9812 173.099 34.916C172.992 35.8509 172.938 36.7677 172.938 37.6666C172.938 38.961 173.117 40.0397 173.476 40.9026C173.835 41.7296 174.283 42.3948 174.821 42.8982C175.359 43.4016 175.933 43.7611 176.543 43.9769C177.153 44.1566 177.709 44.2465 178.212 44.2465C179.754 44.2465 181.207 43.7431 182.571 42.7364C183.934 41.7296 185.19 40.5251 186.338 39.1228C187.486 37.6846 188.509 36.1745 189.405 34.5924C190.338 33.0104 191.11 31.6261 191.72 30.4395C191.899 30.1159 192.15 29.8642 192.473 29.6845C192.796 29.5047 193.137 29.4148 193.496 29.4148C194.141 29.4148 194.644 29.6305 195.002 30.062C195.361 30.4575 195.541 30.907 195.541 31.4103C195.541 31.7699 195.469 32.0935 195.325 32.3811C194.5 33.8553 193.531 35.5273 192.419 37.397C191.343 39.2307 190.105 40.9566 188.706 42.5746C187.307 44.1926 185.728 45.5589 183.97 46.6735C182.248 47.7882 180.346 48.3455 178.266 48.3455C176.974 48.3455 175.754 48.0938 174.606 47.5904C173.458 47.123 172.453 46.4398 171.592 45.5409C170.767 44.6061 170.103 43.4735 169.601 42.1431C169.099 40.7768 168.848 39.2487 168.848 37.5588C168.848 35.761 169.027 33.9812 169.386 32.2193C169.745 30.4216 169.924 28.7137 169.924 27.0956C169.924 26.4125 169.763 25.9091 169.44 25.5855C169.153 25.226 168.489 25.0462 167.448 25.0462C166.946 25.0462 166.39 25.0462 165.78 25.0462C165.206 25.0462 164.578 25.0641 163.897 25.1001ZM160.291 21.109C160.291 20.8573 160.273 20.5337 160.237 20.1382C160.237 19.7067 160.201 19.2933 160.129 18.8977C160.094 18.5022 160.022 18.1607 159.914 17.873C159.842 17.5854 159.753 17.4415 159.645 17.4415C159.537 17.4415 159.394 17.5854 159.215 17.873C159.071 18.1247 158.91 18.4483 158.73 18.8438C158.551 19.2034 158.389 19.5989 158.246 20.0303C158.102 20.4618 157.995 20.8214 157.923 21.109H160.291Z" fill="white"/>
<path d="M233.32 32.2193C233.176 32.507 232.871 33.1182 232.405 34.0531C231.974 34.952 231.4 35.9947 230.683 37.1812C230.001 38.3678 229.194 39.6082 228.261 40.9026C227.328 42.197 226.288 43.3836 225.14 44.4623C223.991 45.5409 222.754 46.4398 221.426 47.1589C220.099 47.8421 218.7 48.1837 217.229 48.1837C215.148 48.1837 213.39 47.5185 211.955 46.1881C210.555 44.8578 209.533 43.1858 208.887 41.1723C207.667 43.2218 206.214 44.8578 204.528 46.0803C202.842 47.2668 201.155 47.8601 199.469 47.8601C198.142 47.8601 196.94 47.6264 195.863 47.1589C194.787 46.6556 193.872 45.9724 193.119 45.1095C192.365 44.2106 191.773 43.1679 191.343 41.9813C190.948 40.7948 190.751 39.5004 190.751 38.0981C190.751 35.2935 191.217 32.8306 192.15 30.7092C193.119 28.5519 194.339 26.7541 195.81 25.3158C197.281 23.8776 198.895 22.7989 200.653 22.0798C202.447 21.3607 204.169 21.0012 205.819 21.0012C206.932 21.0012 207.954 21.163 208.887 21.4866C209.82 21.7742 210.609 22.0978 211.255 22.4574C211.937 22.8169 212.457 23.1585 212.816 23.4821C213.174 23.7697 213.372 23.9315 213.408 23.9675C213.802 24.4349 214 24.9203 214 25.4237C214 25.963 213.802 26.4484 213.408 26.8799C213.013 27.2754 212.547 27.4732 212.008 27.4732C211.434 27.4732 210.95 27.2754 210.555 26.8799C210.484 26.808 210.322 26.6822 210.071 26.5024C209.82 26.2866 209.479 26.0709 209.048 25.8552C208.618 25.6394 208.098 25.4597 207.488 25.3158C206.914 25.1361 206.25 25.0462 205.497 25.0462C204.384 25.0462 203.2 25.2979 201.945 25.8012C200.689 26.3046 199.541 27.0956 198.5 28.1743C197.46 29.217 196.581 30.5474 195.863 32.1654C195.182 33.7475 194.841 35.6351 194.841 37.8284C194.841 38.5116 194.913 39.2127 195.056 39.9318C195.2 40.615 195.451 41.2442 195.81 41.8195C196.168 42.3948 196.653 42.8622 197.263 43.2218C197.873 43.5813 198.626 43.7611 199.523 43.7611C200.169 43.7611 200.904 43.5454 201.729 43.1139C202.59 42.6824 203.398 42.0173 204.151 41.1184C204.94 40.2195 205.64 39.0869 206.25 37.7206C206.896 36.3542 207.344 34.7362 207.595 32.8665C207.667 32.3632 207.9 31.9497 208.295 31.6261C208.69 31.2665 209.156 31.0867 209.694 31.0867C210.197 31.0867 210.627 31.2845 210.986 31.68C211.38 32.0755 211.596 32.525 211.632 33.0283C211.668 33.7115 211.739 34.6823 211.847 35.9408C211.955 37.1632 212.188 38.3857 212.547 39.6082C212.941 40.8307 213.515 41.8914 214.269 42.7903C215.022 43.6892 216.063 44.1387 217.39 44.1387C218.251 44.1387 219.094 43.9049 219.919 43.4375C220.78 42.9701 221.606 42.3588 222.395 41.6038C223.22 40.8128 223.991 39.9318 224.709 38.961C225.462 37.9543 226.144 36.9475 226.754 35.9408C227.364 34.934 227.902 33.9632 228.369 33.0283C228.835 32.0935 229.23 31.2845 229.552 30.6013C229.732 30.2058 229.983 29.9002 230.306 29.6845C230.665 29.4687 231.041 29.3609 231.436 29.3609C232.046 29.3609 232.53 29.5946 232.889 30.062C233.284 30.4935 233.481 30.9609 233.481 31.4643C233.481 31.716 233.427 31.9676 233.32 32.2193Z" fill="white"/>
</svg>
