<svg width="218" height="38" viewBox="0 0 218 38" fill="none" xmlns="http://www.w3.org/2000/svg">
<path fill-rule="evenodd" clip-rule="evenodd" d="M60.9214 0.350586C63.2025 0.350587 65.0517 2.27138 65.0517 4.6408L65.0517 18.1243C65.0517 23.8786 69.5427 28.5434 75.0825 28.5434H85.7033C91.2432 28.5434 95.7341 23.8786 95.7341 18.1243V4.6408C95.7341 2.27138 97.5833 0.350589 99.8644 0.350589C102.146 0.350589 103.995 2.27138 103.995 4.6408V18.1243C103.995 28.6175 95.8054 37.1239 85.7033 37.1239H75.0825C64.9804 37.1239 56.7911 28.6175 56.7911 18.1243L56.7911 4.6408C56.7911 2.27138 58.6403 0.350585 60.9214 0.350586ZM0.146729 19.3501C0.146729 8.85697 8.33607 0.350589 18.4381 0.350589H29.059C39.161 0.350589 47.3504 8.85697 47.3504 19.3501V32.8336C47.3504 35.2031 45.5012 37.1239 43.22 37.1239C40.9389 37.1239 39.0897 35.2031 39.0897 32.8336V19.3501C39.0897 13.5958 34.5988 8.93102 29.059 8.93102H18.4381C12.8983 8.93102 8.40736 13.5958 8.40736 19.3501V32.8336C8.40736 35.2031 6.55816 37.1239 4.27705 37.1239C1.99593 37.1239 0.146729 35.2031 0.146729 32.8336V19.3501ZM113.435 19.3501C113.435 8.85697 121.625 0.350589 131.727 0.350589H142.348C152.45 0.350589 160.639 8.85697 160.639 19.3501V32.8336C160.639 35.2031 158.79 37.1239 156.509 37.1239C154.228 37.1239 152.378 35.2031 152.378 32.8336V19.3501C152.378 13.5958 147.888 8.93102 142.348 8.93102H131.727C126.187 8.93102 121.696 13.5958 121.696 19.3501V32.8336C121.696 35.2031 119.847 37.1239 117.566 37.1239C115.285 37.1239 113.435 35.2031 113.435 32.8336V19.3501ZM188.076 8.93102C182.699 8.93102 178.34 13.4586 178.34 19.0437C178.34 24.6287 182.699 29.1563 188.076 29.1563H213.153C215.434 29.1563 217.283 31.0771 217.283 33.4465C217.283 35.816 215.434 37.7367 213.153 37.7367H188.076C178.137 37.7367 170.08 29.3676 170.08 19.0437C170.08 8.71977 178.137 0.350589 188.076 0.35059L213.153 0.35059C215.434 0.35059 217.283 2.27138 217.283 4.6408C217.283 7.01022 215.434 8.93102 213.153 8.93102H188.076Z" fill="white"/>
</svg>
