<svg width="240" height="38" viewBox="0 0 240 38" fill="none" xmlns="http://www.w3.org/2000/svg">
<path d="M11.3212 37.7367C9.09861 37.7367 7.36219 37.1798 6.11197 36.0659C4.89647 34.9519 4.28873 33.1766 4.28873 30.7399V12.8823H0.694336V12.3601L1.94456 12.1512C3.02114 11.9076 3.94144 11.5595 4.70547 11.1069C5.50422 10.6544 6.28561 10.0452 7.04963 9.2794L11.3212 4.52781H11.8422L11.6859 11.838H17.5202V12.8823H11.6338V31.6798C11.6338 32.8981 11.8942 33.8206 12.4152 34.4472C12.9708 35.0738 13.6654 35.3871 14.4989 35.3871C15.2282 35.3871 15.8706 35.213 16.4263 34.8649C16.982 34.482 17.5376 33.9772 18.0933 33.3507L18.6142 33.8728C17.9196 35.0564 16.9646 35.9962 15.7491 36.6924C14.5336 37.3886 13.0576 37.7367 11.3212 37.7367Z" fill="white"/>
<path d="M33.1688 11.0547C35.4261 11.0547 37.3536 11.5247 38.9511 12.4645C40.5486 13.3696 41.7641 14.6228 42.5975 16.224C43.4658 17.7905 43.8999 19.5832 43.8999 21.6022C43.8999 21.9851 43.8825 22.3854 43.8478 22.8032C43.813 23.1861 43.7436 23.5342 43.6394 23.8475H28.1158C28.1505 27.607 28.8104 30.3222 30.0953 31.9931C31.415 33.6291 33.3598 34.4472 35.9297 34.4472C37.6661 34.4472 39.0726 34.1687 40.1492 33.6117C41.2258 33.0548 42.2329 32.2367 43.1706 31.1576L43.6915 31.6276C42.6149 33.5421 41.1737 35.039 39.3678 36.1181C37.5967 37.1972 35.4609 37.7367 32.9604 37.7367C30.4947 37.7367 28.3068 37.2146 26.3967 36.1703C24.4867 35.0912 22.9934 33.5595 21.9168 31.5753C20.8402 29.5912 20.3019 27.2241 20.3019 24.4741C20.3019 21.6196 20.927 19.2003 22.1772 17.2161C23.4275 15.1971 25.025 13.6655 26.9698 12.6212C28.9493 11.5769 31.0156 11.0547 33.1688 11.0547ZM33.0125 12.099C32.0054 12.099 31.1372 12.4123 30.4079 13.0389C29.7133 13.6307 29.1577 14.7098 28.7409 16.2763C28.3589 17.8079 28.1505 19.9835 28.1158 22.8032H37.0236C37.3709 19.0089 37.232 16.2763 36.6069 14.6054C35.9818 12.9345 34.7837 12.099 33.0125 12.099Z" fill="white"/>
<path d="M46.4959 36.9535V36.4314L47.2773 36.2225C47.9719 36.0136 48.4407 35.7004 48.6838 35.2826C48.9617 34.8649 49.1006 34.3253 49.1006 33.664V17.3206C49.1006 16.5547 48.9617 15.9978 48.6838 15.6497C48.4407 15.2668 47.9719 15.0057 47.2773 14.8664L46.4959 14.6576V14.1354L55.4559 11.1069L55.9768 11.6291L56.4456 16.1196V16.5373C56.9318 15.5626 57.5569 14.675 58.321 13.8744C59.1197 13.0389 59.9879 12.3601 60.9256 11.838C61.898 11.3158 62.853 11.0547 63.7907 11.0547C65.1104 11.0547 66.1175 11.4202 66.8121 12.1512C67.5066 12.8823 67.8539 13.8047 67.8539 14.9187C67.8539 16.1022 67.5066 17.0247 66.8121 17.6861C66.1522 18.3127 65.3535 18.6259 64.4158 18.6259C62.9572 18.6259 61.6723 17.8949 60.5609 16.4329L60.4568 16.3285C60.1095 15.8411 59.7101 15.5801 59.2586 15.5452C58.8072 15.4756 58.3904 15.6845 58.0084 16.1718C57.6611 16.4851 57.3659 16.868 57.1228 17.3206C56.9145 17.7383 56.7061 18.2256 56.4977 18.7826V33.3507C56.4977 34.7431 57.1055 35.6133 58.321 35.9614L59.9879 36.4314V36.9535H46.4959Z" fill="white"/>
<path d="M69.4899 36.9535V36.4314L70.2713 36.2225C70.9659 36.0136 71.4347 35.7004 71.6778 35.2826C71.9557 34.8649 72.0946 34.3253 72.0946 33.664V17.3206C72.0946 16.5547 71.9557 15.9978 71.6778 15.6497C71.4347 15.2668 70.9659 15.0057 70.2713 14.8664L69.4899 14.6576V14.1354L78.4499 11.1069L78.9708 11.6291L79.4396 16.1196V16.5373C79.9258 15.5626 80.5509 14.675 81.315 13.8744C82.1137 13.0389 82.9819 12.3601 83.9196 11.838C84.892 11.3158 85.847 11.0547 86.7847 11.0547C88.1044 11.0547 89.1115 11.4202 89.8061 12.1512C90.5006 12.8823 90.8479 13.8047 90.8479 14.9187C90.8479 16.1022 90.5006 17.0247 89.8061 17.6861C89.1462 18.3127 88.3475 18.6259 87.4098 18.6259C85.9512 18.6259 84.6663 17.8949 83.5549 16.4329L83.4508 16.3285C83.1035 15.8411 82.7041 15.5801 82.2526 15.5452C81.8012 15.4756 81.3844 15.6845 81.0024 16.1718C80.6551 16.4851 80.3599 16.868 80.1168 17.3206C79.9085 17.7383 79.7001 18.2256 79.4917 18.7826V33.3507C79.4917 34.7431 80.0995 35.6133 81.315 35.9614L82.9819 36.4314V36.9535H69.4899Z" fill="white"/>
<path d="M98.9703 37.7367C96.956 37.7367 95.2543 37.1624 93.8652 36.0136C92.5108 34.8649 91.8336 33.2114 91.8336 31.0532C91.8336 29.4171 92.6671 27.9203 94.334 26.5627C96.001 25.1703 98.623 24.126 102.2 23.4298C102.756 23.3253 103.381 23.2209 104.075 23.1165C104.77 22.9772 105.499 22.838 106.263 22.6987V18.5737C106.263 16.2066 105.968 14.5532 105.378 13.6133C104.822 12.6386 103.936 12.1512 102.721 12.1512C101.887 12.1512 101.228 12.4297 100.741 12.9867C100.255 13.5088 99.9427 14.4313 99.8038 15.7541L99.6996 16.3285C99.6301 17.8253 99.2655 18.9218 98.6056 19.618C97.9458 20.3142 97.1297 20.6623 96.1573 20.6623C95.2543 20.6623 94.5077 20.3839 93.9173 19.8269C93.3269 19.2699 93.0317 18.5215 93.0317 17.5816C93.0317 16.1544 93.5179 14.9535 94.4903 13.9788C95.4974 13.0041 96.8171 12.2731 98.4494 11.7857C100.082 11.2984 101.853 11.0547 103.763 11.0547C106.854 11.0547 109.233 11.8205 110.899 13.3522C112.601 14.849 113.452 17.3032 113.452 20.7146V32.2541C113.452 33.8206 114.181 34.6038 115.64 34.6038H116.786L117.255 35.0216C116.595 35.857 115.866 36.501 115.067 36.9535C114.303 37.4061 113.209 37.6323 111.785 37.6323C110.257 37.6323 109.042 37.2842 108.139 36.588C107.27 35.857 106.697 34.8997 106.42 33.7162C105.378 34.8301 104.301 35.7874 103.19 36.588C102.113 37.3538 100.707 37.7367 98.9703 37.7367ZM102.148 34.5516C102.842 34.5516 103.485 34.395 104.075 34.0817C104.7 33.7336 105.43 33.2114 106.263 32.5152V23.743C105.916 23.8127 105.569 23.8823 105.221 23.9519C104.874 24.0215 104.475 24.0911 104.023 24.1608C102.426 24.5785 101.141 25.2921 100.168 26.3016C99.2307 27.2763 98.7619 28.5991 98.7619 30.27C98.7619 31.6972 99.0918 32.7763 99.7517 33.5073C100.412 34.2035 101.21 34.5516 102.148 34.5516Z" fill="white"/>
<path d="M131.246 37.7367C128.884 37.7367 126.731 37.232 124.786 36.2225C122.876 35.1782 121.348 33.6814 120.202 31.732C119.091 29.7478 118.535 27.3285 118.535 24.4741C118.535 21.6544 119.143 19.2525 120.358 17.2683C121.609 15.2494 123.258 13.7177 125.307 12.6734C127.391 11.5943 129.666 11.0547 132.131 11.0547C134.146 11.0547 135.847 11.3854 137.236 12.0468C138.626 12.7082 139.685 13.5785 140.414 14.6576C141.143 15.7019 141.508 16.7984 141.508 17.9471C141.508 18.9218 141.213 19.6877 140.622 20.2446C140.032 20.7668 139.268 21.0278 138.33 21.0278C137.323 21.0278 136.507 20.6623 135.882 19.9313C135.257 19.2003 134.892 18.243 134.788 17.0595C134.753 16.2937 134.771 15.6497 134.84 15.1275C134.91 14.5706 134.91 14.0136 134.84 13.4566C134.701 12.8649 134.475 12.4819 134.163 12.3079C133.885 12.099 133.486 11.9946 132.965 11.9946C130.846 11.9946 129.197 12.9171 128.016 14.762C126.87 16.607 126.297 19.5484 126.297 23.5864C126.297 27.1022 126.939 29.8 128.224 31.6798C129.544 33.5247 131.558 34.4472 134.267 34.4472C135.899 34.4472 137.219 34.1513 138.226 33.5595C139.233 32.9678 140.206 32.0801 141.143 30.8965L141.664 31.3143C140.796 33.3681 139.459 34.9519 137.653 36.0659C135.847 37.1798 133.711 37.7367 131.246 37.7367Z" fill="white"/>
<path d="M150.319 8.33953C149.138 8.33953 148.131 7.97402 147.298 7.24301C146.499 6.47718 146.099 5.5199 146.099 4.37117C146.099 3.18762 146.499 2.23034 147.298 1.49932C148.131 0.768308 149.138 0.402801 150.319 0.402801C151.5 0.402801 152.489 0.768308 153.288 1.49932C154.087 2.23034 154.486 3.18762 154.486 4.37117C154.486 5.5199 154.087 6.47718 153.288 7.24301C152.489 7.97402 151.5 8.33953 150.319 8.33953ZM144.172 36.9535V36.4314L144.901 36.2225C145.596 36.0136 146.065 35.7004 146.308 35.2826C146.586 34.8649 146.725 34.3079 146.725 33.6117V17.2683C146.725 16.5373 146.586 15.9978 146.308 15.6497C146.065 15.2668 145.596 15.0057 144.901 14.8664L144.172 14.7098V14.1876L153.705 11.1069L154.226 11.6291L154.07 19.0437V33.664C154.07 34.3602 154.191 34.9171 154.434 35.3348C154.712 35.7526 155.181 36.0659 155.841 36.2747L156.362 36.4314V36.9535H144.172Z" fill="white"/>
<path d="M167.576 37.6323L158.772 36.9535V36.4314L159.293 36.3269C160.648 36.0136 161.325 35.1434 161.325 33.7162V5.78098C161.325 5.04996 161.203 4.493 160.96 4.11009C160.752 3.72718 160.3 3.4661 159.606 3.32686L158.876 3.118V2.59584L168.149 0.350586L168.774 0.820524L168.566 8.18288V13.4566C169.712 12.656 170.962 12.0642 172.316 11.6813C173.671 11.2636 175.042 11.0547 176.432 11.0547C178.411 11.0547 180.165 11.5247 181.693 12.4645C183.221 13.3696 184.419 14.7968 185.287 16.7462C186.19 18.6608 186.642 21.1323 186.642 24.1608C186.642 27.1893 186.138 29.713 185.131 31.732C184.159 33.7162 182.839 35.213 181.172 36.2225C179.54 37.232 177.734 37.7367 175.754 37.7367C174.469 37.7367 173.167 37.5627 171.847 37.2146C170.562 36.8665 169.416 36.3792 168.409 35.7526L167.576 37.6323ZM173.15 35.9614C174.261 35.9614 175.233 35.6133 176.067 34.9171C176.9 34.2209 177.56 33.0374 178.046 31.3665C178.533 29.6608 178.776 27.3285 178.776 24.3696C178.776 21.4108 178.55 19.1307 178.099 17.5294C177.647 15.9282 177.005 14.8142 176.171 14.1876C175.372 13.5611 174.4 13.2478 173.254 13.2478C171.622 13.2478 170.111 13.7003 168.722 14.6054V34.656C169.382 35.0738 170.059 35.4045 170.753 35.6481C171.448 35.857 172.247 35.9614 173.15 35.9614Z" fill="white"/>
<path d="M198.162 37.7367C196.808 37.7367 195.557 37.4757 194.411 36.9535C193.3 36.4314 192.414 35.5959 191.755 34.4472C191.129 33.2636 190.834 31.7146 190.869 29.8L191.025 16.3807C191.025 15.5801 190.886 15.0057 190.608 14.6576C190.331 14.3095 189.897 14.0658 189.306 13.9266L188.681 13.7177V13.1956L198.006 11.368L198.527 11.8902L198.266 19.3047V31.8886C198.266 33.0026 198.579 33.8206 199.204 34.3428C199.864 34.8649 200.68 35.126 201.652 35.126C202.625 35.126 203.493 34.9867 204.257 34.7083C205.021 34.4298 205.785 34.0121 206.549 33.4551L206.757 16.4329C206.757 15.6323 206.636 15.0753 206.393 14.762C206.149 14.4139 205.698 14.1702 205.038 14.031L204.517 13.8744V13.3522L213.633 11.368L214.154 11.8902L213.998 19.3047V33.4551C213.998 34.2209 214.102 34.8127 214.311 35.2304C214.519 35.6481 214.97 35.9962 215.665 36.2747L216.186 36.4314V36.9535L207.07 37.4757L206.601 34.395C205.455 35.3348 204.205 36.1355 202.85 36.7969C201.531 37.4235 199.968 37.7367 198.162 37.7367Z" fill="white"/>
<path d="M227.607 37.7367C225.905 37.7367 224.377 37.5279 223.023 37.1102C221.668 36.7273 220.418 36.2399 219.272 35.6481L219.324 29.4345H219.845L221.616 32.5674C222.38 33.9598 223.214 35.0041 224.117 35.7004C225.054 36.3617 226.235 36.6924 227.659 36.6924C229.326 36.6924 230.663 36.3269 231.67 35.5959C232.712 34.8301 233.233 33.8206 233.233 32.5674C233.233 31.4187 232.868 30.4788 232.139 29.7478C231.41 29.0168 230.055 28.3554 228.076 27.7636L225.888 27.0848C223.769 26.4582 222.102 25.4836 220.887 24.1608C219.671 22.838 219.064 21.2193 219.064 19.3047C219.064 17.0073 219.967 15.0579 221.772 13.4566C223.578 11.8554 226.166 11.0547 229.534 11.0547C230.889 11.0547 232.156 11.2114 233.337 11.5247C234.553 11.8031 235.716 12.2383 236.827 12.83L236.515 18.4693H235.994L234.171 15.232C233.511 14.0832 232.851 13.2826 232.191 12.83C231.566 12.3427 230.611 12.099 229.326 12.099C228.145 12.099 227.034 12.4297 225.992 13.0911C224.95 13.7525 224.429 14.6924 224.429 15.9107C224.429 17.0943 224.863 18.0342 225.732 18.7304C226.634 19.4266 227.954 20.0706 229.691 20.6623L232.035 21.3411C234.535 22.107 236.324 23.1687 237.4 24.5263C238.477 25.8491 239.015 27.4503 239.015 29.3301C239.015 31.8712 238.008 33.9076 235.994 35.4393C234.014 36.9709 231.219 37.7367 227.607 37.7367Z" fill="white"/>
</svg>
