<svg width="238" height="51" viewBox="0 0 238 51" fill="none" xmlns="http://www.w3.org/2000/svg">
<path d="M0.822266 50.7598V9.66177H24.4507C26.1265 9.66177 27.5509 10.2706 28.7239 11.4884C29.9305 12.6722 30.5338 14.1098 30.5338 15.8011V32.9507C30.5338 34.642 29.9305 36.0965 28.7239 37.3142C27.5509 38.4981 26.1265 39.09 24.4507 39.09H4.94467V50.7598H0.822266ZM6.95561 34.9295H24.4507C24.987 34.9295 25.4394 34.7434 25.8081 34.3714C26.2103 33.9655 26.4114 33.4919 26.4114 32.9507V15.8011C26.4114 15.2599 26.2103 14.8033 25.8081 14.4312C25.4394 14.0253 24.987 13.8223 24.4507 13.8223H6.95561C6.41936 13.8223 5.95014 14.0253 5.54795 14.4312C5.14577 14.8033 4.94467 15.2599 4.94467 15.8011V32.9507C4.94467 33.4919 5.14577 33.9655 5.54795 34.3714C5.95014 34.7434 6.41936 34.9295 6.95561 34.9295Z" fill="white"/>
<path d="M40.1894 39.09C38.5136 39.09 37.0724 38.4981 35.8659 37.3142C34.6928 36.0965 34.1063 34.642 34.1063 32.9507V0.0214844H38.2287V32.9507C38.2287 33.4919 38.4131 33.9655 38.7817 34.3714C39.1839 34.7434 39.6531 34.9295 40.1894 34.9295H45.1162V39.09H40.1894Z" fill="white"/>
<path d="M55.41 39.09C53.7342 39.09 52.2931 38.4981 51.0865 37.3142C49.9135 36.0965 49.3269 34.642 49.3269 32.9507V9.66177H53.4494V32.9507C53.4494 33.4919 53.6337 33.9655 54.0024 34.3714C54.4046 34.7434 54.8738 34.9295 55.41 34.9295H72.9051C73.4414 34.9295 73.9106 34.7434 74.3128 34.3714C74.715 33.9655 74.9161 33.4919 74.9161 32.9507V9.66177H79.0385V32.9507C79.0385 34.642 78.4352 36.0965 77.2286 37.3142C76.0556 38.4981 74.6144 39.09 72.9051 39.09H55.41Z" fill="white"/>
<path d="M89.3779 39.09C87.7021 39.09 86.2609 38.4981 85.0544 37.3142C83.8813 36.0965 83.2948 34.642 83.2948 32.9507V32.5448H87.4172V32.9507C87.4172 33.4919 87.6015 33.9655 87.9702 34.3714C88.3724 34.7434 88.8416 34.9295 89.3779 34.9295H106.873C107.409 34.9295 107.862 34.7434 108.23 34.3714C108.633 33.9655 108.834 33.4919 108.834 32.9507V28.435C108.834 27.8938 108.633 27.4371 108.23 27.065C107.862 26.6591 107.409 26.4562 106.873 26.4562H89.3779C87.7021 26.4562 86.2609 25.8642 85.0544 24.6803C83.8813 23.4626 83.2948 22.0081 83.2948 20.3168V15.8011C83.2948 14.1098 83.8813 12.6722 85.0544 11.4884C86.2609 10.2706 87.7021 9.66177 89.3779 9.66177H106.873C108.582 9.66177 110.023 10.2706 111.196 11.4884C112.403 12.6722 113.006 14.1098 113.006 15.8011V16.207H108.834V15.8011C108.834 15.2599 108.633 14.8033 108.23 14.4312C107.862 14.0253 107.409 13.8223 106.873 13.8223H89.3779C88.8416 13.8223 88.3724 14.0253 87.9702 14.4312C87.6015 14.8033 87.4172 15.2599 87.4172 15.8011V20.3168C87.4172 20.858 87.6015 21.3316 87.9702 21.7375C88.3724 22.1096 88.8416 22.2956 89.3779 22.2956H106.873C108.582 22.2956 110.023 22.9045 111.196 24.1222C112.403 25.3061 113.006 26.7437 113.006 28.435V32.9507C113.006 34.642 112.403 36.0965 111.196 37.3142C110.023 38.4981 108.582 39.09 106.873 39.09H89.3779Z" fill="white"/>
<path d="M125.743 39.09C123.832 39.09 122.19 38.4135 120.816 37.0605C119.475 35.6736 118.805 34.0162 118.805 32.0881V0.630346H125.391V9.66177H136.752V16.3085H125.391V30.6675C125.391 31.6146 125.441 32.1558 125.542 32.2911C125.676 32.3926 126.212 32.4433 127.15 32.4433H136.752V39.09H125.743Z" fill="white"/>
<path d="M147.686 39.09C145.775 39.09 144.133 38.4135 142.759 37.0605C141.418 35.6736 140.748 34.0162 140.748 32.0881V16.6637C140.748 14.7356 141.418 13.0951 142.759 11.742C144.133 10.3552 145.775 9.66177 147.686 9.66177H163.421C165.332 9.66177 166.957 10.3552 168.298 11.742C169.672 13.0951 170.359 14.7356 170.359 16.6637V27.7246H147.334V30.6675C147.334 31.6146 147.384 32.1558 147.485 32.2911C147.619 32.3926 148.155 32.4433 149.093 32.4433H170.359V39.09H147.686ZM147.334 21.7375H163.773V18.0843C163.773 17.1372 163.706 16.6129 163.572 16.5115C163.472 16.3761 162.952 16.3085 162.014 16.3085H149.093C148.155 16.3085 147.619 16.3761 147.485 16.5115C147.384 16.6129 147.334 17.1372 147.334 18.0843V21.7375Z" fill="white"/>
<path d="M181.316 39.09C179.405 39.09 177.763 38.4135 176.389 37.0605C175.048 35.6736 174.378 34.0162 174.378 32.0881V16.6637C174.378 14.7356 175.048 13.0951 176.389 11.742C177.763 10.3552 179.405 9.66177 181.316 9.66177H203.939V16.3085H182.723C181.785 16.3085 181.249 16.3761 181.115 16.5115C181.014 16.6129 180.964 17.1372 180.964 18.0843V30.6675C180.964 31.6146 181.014 32.1558 181.115 32.2911C181.249 32.3926 181.785 32.4433 182.723 32.4433H203.989V39.09H181.316Z" fill="white"/>
<path d="M208.208 39.09V0.0214844H214.794V9.66177H230.881C232.758 9.66177 234.384 10.3552 235.758 11.742C237.132 13.0951 237.819 14.7356 237.819 16.6637V39.09H231.233V18.0843C231.233 17.1372 231.166 16.6129 231.032 16.5115C230.932 16.3761 230.412 16.3085 229.474 16.3085H216.553C215.615 16.3085 215.079 16.3761 214.945 16.5115C214.844 16.6129 214.794 17.1372 214.794 18.0843V39.09H208.208Z" fill="white"/>
</svg>
