<svg width="20" height="20" viewBox="0 0 20 20" fill="none" xmlns="http://www.w3.org/2000/svg">
<path fill-rule="evenodd" clip-rule="evenodd" d="M16.6139 1.52051H2.39942C1.91428 1.52051 1.521 1.91379 1.521 2.39893V16.6134C1.521 16.8464 1.61354 17.0698 1.77828 17.2345C1.94302 17.3993 2.16645 17.4918 2.39942 17.4918H10.0497V11.3029H7.9734V8.90723H10.0497V7.11046C9.96261 6.25657 10.2574 5.40785 10.855 4.79176C11.4526 4.17566 12.292 3.85518 13.1481 3.9162C13.7696 3.91238 14.3909 3.94437 15.0088 4.01203V6.16816H13.739C12.7328 6.16816 12.5412 6.64729 12.5412 7.34205V8.88328H14.9369L14.6254 11.279H12.5412V17.4918H16.6139C16.8468 17.4918 17.0703 17.3993 17.235 17.2345C17.3997 17.0698 17.4923 16.8464 17.4923 16.6134V2.39893C17.4923 2.16596 17.3997 1.94253 17.235 1.77779C17.0703 1.61306 16.8468 1.52051 16.6139 1.52051Z" fill="white"/>
</svg>
