<svg width="42" height="34" viewBox="0 0 42 34" fill="none" xmlns="http://www.w3.org/2000/svg">
<path d="M22.1054 33.5764H3.21082C1.78783 33.5764 0.634277 32.3958 0.634277 30.9396V2.81357C0.634277 1.3573 1.78783 0.176758 3.21082 0.176758H22.1054V1.93463H3.21082C2.73649 1.93463 2.35197 2.32815 2.35197 2.81357V30.9396C2.35197 31.425 2.73649 31.8185 3.21082 31.8185H22.1054V33.5764Z" fill="#002BFF"/>
<path fill-rule="evenodd" clip-rule="evenodd" d="M24.4912 0.176758H38.5542C40.0105 0.176758 41.191 1.3573 41.191 2.81357V30.9396C41.191 32.3958 40.0105 33.5764 38.5542 33.5764H24.4912V0.176758ZM29.7648 24.7872H35.9173C36.4028 24.7872 36.7963 24.3937 36.7963 23.9083C36.7963 23.4229 36.4028 23.0293 35.9173 23.0293H29.7648C29.2794 23.0293 28.8859 23.4229 28.8859 23.9083C28.8859 24.3937 29.2794 24.7872 29.7648 24.7872ZM35.9173 17.7556H29.7648C29.2794 17.7556 28.8859 17.3621 28.8859 16.8766C28.8859 16.3912 29.2794 15.9977 29.7648 15.9977H35.9173C36.4028 15.9977 36.7963 16.3912 36.7963 16.8766C36.7963 17.3621 36.4028 17.7556 35.9173 17.7556ZM29.7648 10.7242H35.9173C36.4028 10.7242 36.7963 10.3307 36.7963 9.84523C36.7963 9.35981 36.4028 8.9663 35.9173 8.9663H29.7648C29.2794 8.9663 28.8859 9.35981 28.8859 9.84523C28.8859 10.3307 29.2794 10.7242 29.7648 10.7242Z" fill="#002BFF"/>
</svg>
