<svg width="147" height="112" viewBox="0 0 147 112" fill="none" xmlns="http://www.w3.org/2000/svg">
<path fill-rule="evenodd" clip-rule="evenodd" d="M31.2369 4.32353C16.2668 4.32353 4.32353 16.0596 4.32353 30.3724C4.32353 34.8793 5.06368 38.5462 6.5037 41.8079C7.94746 45.0781 10.1435 48.0517 13.2019 51.1101L13.2268 51.1353C16.5032 54.521 20.6535 59.8318 20.5368 65.9554V70.2573H42.1544V65.9553C42.0381 59.8789 45.9042 54.4787 49.2729 51.1101C52.3313 48.0517 54.5273 45.0781 55.9711 41.8079C57.4111 38.5462 58.1513 34.8793 58.1513 30.3724C58.1513 16.0597 46.2071 4.32353 31.2369 4.32353ZM0 30.3724C0 13.5557 13.9967 0 31.2369 0C48.477 0 62.4748 13.5556 62.4748 30.3724C62.4748 35.3772 61.6478 39.6549 59.9263 43.5541C58.2086 47.4448 55.6489 50.8484 52.3301 54.1673C49.2178 57.2796 46.3881 61.5984 46.4775 65.8888C46.4778 65.9038 46.4779 65.9188 46.4779 65.9338V72.4191C46.4779 73.613 45.5101 74.5809 44.3162 74.5809H18.375C17.1811 74.5809 16.2132 73.613 16.2132 72.4191V65.9338L16.2134 65.9089L16.2137 65.8888C16.302 61.6511 13.3319 57.4639 10.1319 54.1544C6.81931 50.8397 4.26398 47.4398 2.54848 43.5541C0.827026 39.6549 0 35.3772 0 30.3724ZM128.624 7.56618C120.728 7.56618 114.574 13.5233 114.574 20.6145V44.2384C114.574 51.3296 120.728 57.2868 128.624 57.2868C136.5 57.2868 142.676 51.2407 142.676 44.1305V20.6145C142.676 13.5235 136.521 7.56618 128.624 7.56618ZM110.25 20.6145C110.25 10.8776 118.607 3.24265 128.624 3.24265C138.642 3.24265 147 10.8775 147 20.6145V44.1305C147 53.8482 138.662 61.6103 128.624 61.6103C118.607 61.6103 110.25 53.9753 110.25 44.2384V20.6145ZM128.625 15.1324C129.819 15.1324 130.787 16.1002 130.787 17.2941V24.3199C130.787 25.5138 129.819 26.4816 128.625 26.4816C127.431 26.4816 126.463 25.5138 126.463 24.3199V17.2941C126.463 16.1002 127.431 15.1324 128.625 15.1324ZM12.9706 31.3456C12.9706 20.8276 21.1155 11.8897 31.3456 11.8897C32.5395 11.8897 33.5074 10.9219 33.5074 9.72794C33.5074 8.53403 32.5395 7.56618 31.3456 7.56618C18.4448 7.56618 8.64706 18.7327 8.64706 31.3456C8.64706 32.5395 9.61491 33.5074 10.8088 33.5074C12.0027 33.5074 12.9706 32.5395 12.9706 31.3456ZM17.2941 81.0662C17.2941 79.8723 18.262 78.9044 19.4559 78.9044H43.2353C44.4292 78.9044 45.3971 79.8723 45.3971 81.0662C45.3971 82.2601 44.4292 83.2279 43.2353 83.2279H19.4559C18.262 83.2279 17.2941 82.2601 17.2941 81.0662ZM23.7794 87.5515C22.5855 87.5515 21.6176 88.5193 21.6176 89.7132C21.6176 90.9071 22.5855 91.875 23.7794 91.875H37.8309C39.0248 91.875 39.9926 90.9071 39.9926 89.7132C39.9926 88.5193 39.0248 87.5515 37.8309 87.5515H23.7794ZM138.353 70.2574C138.353 69.0634 137.385 68.0956 136.191 68.0956C134.997 68.0956 134.029 69.0634 134.029 70.2574V101.472C134.029 104.263 131.498 107.007 128.384 107.007H42.3957C39.2999 107.007 36.75 104.175 36.75 101.472V98.3603C36.75 97.1664 35.7821 96.1985 34.5882 96.1985C33.3943 96.1985 32.4265 97.1664 32.4265 98.3603V101.472C32.4265 106.466 36.8168 111.331 42.3957 111.331H128.384C133.944 111.331 138.353 106.592 138.353 101.472V70.2574ZM70.6898 22.4824C71.0981 21.938 71.7388 21.6176 72.4193 21.6176H100.521C101.201 21.6176 101.842 21.9379 102.25 22.4821L105.494 26.8056C106.211 27.7606 106.017 29.1157 105.062 29.8321C104.107 30.5486 102.752 30.3553 102.036 29.4003L99.4405 25.9412H73.5001L70.906 29.4C70.1897 30.3551 68.8347 30.5487 67.8795 29.8324C66.9244 29.116 66.7308 27.761 67.4472 26.8059L70.6898 22.4824ZM108.088 73.5C108.088 85.4391 98.4097 95.1176 86.4706 95.1176C74.5315 95.1176 64.8529 85.4391 64.8529 73.5C64.8529 61.5609 74.5315 51.8824 86.4706 51.8824C98.4097 51.8824 108.088 61.5609 108.088 73.5ZM112.412 73.5C112.412 87.8269 100.798 99.4412 86.4706 99.4412C72.1437 99.4412 60.5294 87.8269 60.5294 73.5C60.5294 59.1731 72.1437 47.5588 86.4706 47.5588C100.798 47.5588 112.412 59.1731 112.412 73.5Z" fill="#EB6500"/>
</svg>
