<svg width="42" height="20" viewBox="0 0 42 20" fill="none" xmlns="http://www.w3.org/2000/svg">
<path d="M33.1348 3.85735C30.25 3.85735 25.4414 7.33523 20.3516 11.0178C15.8824 14.2514 10.8163 17.9165 8.44818 17.9165C5.04583 17.9165 2.27652 15.1565 2.27652 11.7656C2.27652 8.37472 5.04583 5.61474 8.44818 5.61474C9.04419 5.61474 9.85091 5.84057 10.8181 6.25443L8.59983 10.2973C8.43408 10.5978 8.46053 10.9669 8.66507 11.2419C8.83259 11.4686 9.09709 11.5969 9.37305 11.5969C9.43212 11.5969 9.49384 11.5907 9.55379 11.5784L17.4447 9.93441C17.6951 9.88169 17.9111 9.7244 18.0354 9.50033C18.1597 9.27627 18.18 9.01002 18.091 8.77102L15.2758 1.16327C15.1559 0.839912 14.8579 0.615845 14.5132 0.591242C14.1746 0.563123 13.8405 0.744135 13.6756 1.04641L11.6645 4.71232C10.3887 4.15259 9.30693 3.85735 8.44818 3.85735C4.07247 3.85735 0.513184 7.40464 0.513184 11.7656C0.513184 16.1266 4.07247 19.6739 8.44818 19.6739C11.3885 19.6739 16.2456 16.16 21.3875 12.4404C25.8091 9.24112 30.8222 5.61474 33.1348 5.61474C36.5372 5.61474 39.3065 8.37472 39.3065 11.7656C39.3065 15.1565 36.5372 17.9165 33.1348 17.9165C31.7383 17.9165 29.2009 16.7206 25.9898 14.5484C25.5878 14.2743 25.0394 14.3815 24.7652 14.7822C24.491 15.1837 24.5968 15.7303 24.9997 16.0027C28.6004 18.4384 31.338 19.6739 33.1348 19.6739C37.5106 19.6739 41.0698 16.1266 41.0698 11.7656C41.0698 7.40464 37.5106 3.85735 33.1348 3.85735Z" fill="#002BFF"/>
</svg>
