<svg width="20" height="20" viewBox="0 0 20 20" fill="none" xmlns="http://www.w3.org/2000/svg">
<path fill-rule="evenodd" clip-rule="evenodd" d="M16.9482 1.58405H2.85688C2.53697 1.5796 2.22841 1.70244 1.99908 1.92553C1.76976 2.14861 1.63846 2.45367 1.63407 2.77358V17.0313C1.63846 17.3512 1.76976 17.6563 1.99908 17.8793C2.22841 18.1024 2.53697 18.2253 2.85688 18.2208H16.9482C17.2681 18.2253 17.5767 18.1024 17.806 17.8793C18.0353 17.6563 18.1666 17.3512 18.171 17.0313V2.77358C18.1666 2.45367 18.0353 2.14861 17.806 1.92553C17.5767 1.70244 17.2681 1.5796 16.9482 1.58405ZM6.65024 15.5088H4.15472V8.0223H6.65024V15.5088ZM5.40249 6.9745C4.68581 6.9745 4.10482 6.39352 4.10482 5.67684C4.10482 4.96015 4.68581 4.37917 5.40249 4.37917C5.90119 4.32261 6.38817 4.55684 6.6553 4.98174C6.92242 5.40664 6.92242 5.94703 6.6553 6.37193C6.38817 6.79683 5.90119 7.03106 5.40249 6.9745ZM15.6507 15.5089H13.1552V11.4911C13.1552 10.4845 12.7975 9.8274 11.8908 9.8274C11.316 9.8316 10.8048 10.1935 10.6097 10.7341C10.5446 10.9296 10.5164 11.1355 10.5266 11.3413V15.5005H8.03105C8.03105 15.5005 8.03105 8.6961 8.03105 8.01399H10.5266V9.07042C10.9886 8.26875 11.8562 7.78851 12.7808 7.82267C14.4445 7.82267 15.6507 8.89574 15.6507 11.1999V15.5089Z" fill="white"/>
</svg>
