<svg width="33" height="33" viewBox="0 0 33 33" fill="none" xmlns="http://www.w3.org/2000/svg">
<path d="M15.5986 5.3514C11.4249 4.48224 6.97645 6.33333 3.81745 10.4228C3.60195 10.7015 3.62532 11.1001 3.87187 11.3508L7.14934 14.6839C9.34658 11.0474 12.2159 7.87825 15.5986 5.3514Z" fill="#002BFF"/>
<path d="M19.1772 26.7166L22.5207 29.9905C22.7709 30.2354 23.1686 30.2587 23.4468 30.0445C27.5527 26.8849 29.4013 22.4317 28.4935 18.2625C25.9689 21.6382 22.8063 24.5082 19.1772 26.7166H19.1772Z" fill="#002BFF"/>
<path fill-rule="evenodd" clip-rule="evenodd" d="M31.5711 0.370718C31.768 0.359511 31.9598 0.435244 32.096 0.577887C32.234 0.715818 32.3073 0.905727 32.2976 1.10064C31.2252 19.9648 14.7572 26.5024 14.5901 26.5666C14.5112 26.597 14.4274 26.6124 14.3429 26.6122C14.1597 26.6121 13.9841 26.5393 13.8546 26.4098L6.25841 18.8136C6.06649 18.6219 6.00462 18.3355 6.10027 18.0816C6.16381 17.9145 12.6206 1.3603 31.5711 0.370718ZM15.7239 14.1821C15.7239 15.7076 16.9606 16.9443 18.4861 16.9443C20.0117 16.9443 21.2484 15.7076 21.2484 14.1821C21.2484 12.6565 20.0117 11.4198 18.4861 11.4198C16.9606 11.4198 15.7239 12.6565 15.7239 14.1821Z" fill="#002BFF"/>
<path d="M8.34553 25.3539C6.62443 23.8508 3.83793 23.8508 2.11683 25.3539C0.533602 26.7389 0.135042 31.3675 0.0932039 31.891C0.0795691 32.0687 0.150838 32.2434 0.289995 32.3734C0.429151 32.5033 0.623705 32.5769 0.827201 32.5765H0.876378C1.47459 32.5405 6.76303 32.191 8.34553 30.8066C10.0639 29.3001 10.0639 26.8604 8.34553 25.3539Z" fill="#002BFF"/>
</svg>
