<svg width="21" height="21" viewBox="0 0 21 21" fill="none" xmlns="http://www.w3.org/2000/svg">
<g id="Iconspace_User 1_25px">
<path id="Shape" fill-rule="evenodd" clip-rule="evenodd" d="M14.8516 4.96934C14.4478 4.96934 14.0839 5.21254 13.9293 5.58555C13.7748 5.95855 13.8602 6.3879 14.1457 6.67338C14.4312 6.95887 14.8606 7.04427 15.2336 6.88977C15.6066 6.73526 15.8498 6.37128 15.8498 5.96755C15.8498 5.41625 15.4029 4.96934 14.8516 4.96934ZM18.6782 6.98252C18.662 6.29234 18.5327 5.60949 18.2955 4.96115C18.084 4.40643 17.7548 3.90412 17.3306 3.4888C16.9187 3.06242 16.4152 2.7353 15.8582 2.53218C15.2116 2.28776 14.528 2.15553 13.8369 2.14122C12.9551 2.09131 12.6723 2.09131 10.4097 2.09131C8.14709 2.09131 7.86427 2.09131 6.98252 2.14122C6.29139 2.15553 5.60778 2.28776 4.96115 2.53218C4.40521 2.73735 3.90217 3.06419 3.4888 3.4888C3.06242 3.90071 2.7353 4.40419 2.53218 4.96115C2.28776 5.60778 2.15553 6.29139 2.14122 6.98252C2.09131 7.86427 2.09131 8.14709 2.09131 10.4097C2.09131 12.6723 2.09131 12.9551 2.14122 13.8369C2.15553 14.528 2.28776 15.2116 2.53218 15.8582C2.7353 16.4152 3.06242 16.9187 3.4888 17.3306C3.90217 17.7552 4.40521 18.082 4.96115 18.2872C5.60778 18.5316 6.29139 18.6639 6.98252 18.6782C7.86427 18.7281 8.14709 18.7281 10.4097 18.7281C12.6723 18.7281 12.9551 18.7281 13.8369 18.6782C14.528 18.6639 15.2116 18.5316 15.8582 18.2872C16.4152 18.0841 16.9187 17.757 17.3306 17.3306C17.7567 16.9168 18.0862 16.4141 18.2955 15.8582C18.5327 15.2099 18.662 14.527 18.6782 13.8369C18.6782 12.9551 18.7281 12.6723 18.7281 10.4097C18.7281 8.14709 18.7281 7.86427 18.6782 6.98252ZM17.1808 13.7368C17.1747 14.2648 17.0791 14.788 16.8979 15.284C16.7651 15.646 16.5518 15.9731 16.2741 16.2406C16.0042 16.5155 15.6778 16.7284 15.3174 16.8645C14.8214 17.0456 14.2983 17.1413 13.7702 17.1473C12.9384 17.1889 12.6306 17.1972 10.4429 17.1972C8.25514 17.1972 7.94736 17.1972 7.11552 17.1473C6.56724 17.1576 6.02131 17.0732 5.50175 16.8978C5.15719 16.7548 4.84573 16.5424 4.58673 16.2739C4.31063 16.0067 4.09997 15.6793 3.97117 15.3173C3.76808 14.8141 3.65544 14.2791 3.63843 13.7368C3.63843 12.9049 3.58852 12.5972 3.58852 10.4094C3.58852 8.2217 3.58852 7.91392 3.63843 7.08208C3.64216 6.54226 3.74071 6.0073 3.92958 5.50159C4.07602 5.15048 4.3008 4.83749 4.58673 4.58656C4.83945 4.30055 5.15179 4.0734 5.50175 3.92109C6.0088 3.73812 6.54321 3.64249 7.08224 3.63827C7.91408 3.63827 8.22186 3.58836 10.4096 3.58836C12.5973 3.58836 12.9051 3.58836 13.737 3.63827C14.265 3.64432 14.7881 3.73996 15.2842 3.92109C15.6622 4.06138 16.0015 4.28947 16.2741 4.58656C16.5467 4.84209 16.7597 5.15449 16.8979 5.50159C17.0828 6.00812 17.1785 6.54286 17.1808 7.08208C17.2224 7.91392 17.2307 8.2217 17.2307 10.4094C17.2307 12.5972 17.2224 12.9049 17.1808 13.7368ZM10.4096 6.14263C8.05391 6.14722 6.14754 8.0598 6.1506 10.4155C6.15366 12.7712 8.06499 14.6788 10.4207 14.6773C12.7764 14.6758 14.6852 12.7657 14.6853 10.41C14.6875 9.27607 14.2375 8.1881 13.4349 7.3871C12.6323 6.5861 11.5435 6.13819 10.4096 6.14263ZM10.4095 13.1797C8.87968 13.1797 7.6395 11.9395 7.6395 10.4096C7.6395 8.87981 8.87968 7.63962 10.4095 7.63962C11.9394 7.63962 13.1795 8.87981 13.1795 10.4096C13.1795 11.1443 12.8877 11.8489 12.3682 12.3683C11.8487 12.8878 11.1442 13.1797 10.4095 13.1797Z" fill="white"/>
</g>
</svg>

