<svg width="141" height="124" viewBox="0 0 141 124" fill="none" xmlns="http://www.w3.org/2000/svg">
<path fill-rule="evenodd" clip-rule="evenodd" d="M74.9167 2.58351C74.9167 1.46796 74.2006 0.478431 73.141 0.129669C72.0814 -0.219093 70.9176 0.151706 70.255 1.04917L53.8598 23.2572L39.3876 1.16778C38.9086 0.436576 38.0922 -0.00275861 37.2181 0.000185873C36.3439 0.00313056 35.5305 0.447955 35.0564 1.18237L21.0268 22.9143L4.65154 1.03555C3.98497 0.144959 2.82313 -0.218919 1.76763 0.132335C0.712121 0.483589 0 1.47109 0 2.58351V47.3613C0 48.788 1.1566 49.9446 2.58333 49.9446H72.3334C73.7601 49.9446 74.9167 48.788 74.9167 47.3613V2.58351ZM5.16667 44.778V10.3463L19.1151 28.9827C19.6218 29.6597 20.4277 30.0458 21.2728 30.0166C22.1178 29.9873 22.8951 29.5463 23.3537 28.8359L37.2427 7.3218L51.5725 29.1938C52.0358 29.9011 52.8159 30.3368 53.6611 30.3604C54.5063 30.3841 55.3095 29.9926 55.8117 29.3124L69.75 10.4323V44.778H5.16667ZM111.083 19.8058C111.083 18.379 112.24 17.2224 113.667 17.2224L137.778 17.2224C139.205 17.2224 140.361 18.379 140.361 19.8058V65.4447C140.361 66.8714 139.205 68.028 137.778 68.028H125.722L125.722 107.639C125.722 109.066 124.566 110.222 123.139 110.222H26.6946C25.2678 110.222 24.1112 109.066 24.1112 107.639V81.8058C24.1112 80.3791 25.2678 79.2225 26.6946 79.2225C28.1213 79.2225 29.2779 80.3791 29.2779 81.8058V105.056H120.556V68.028H113.667C112.24 68.028 111.083 66.8714 111.083 65.4447V40.4724H81.8057C80.379 40.4724 79.2224 39.3158 79.2224 37.8891C79.2224 36.4624 80.379 35.3058 81.8057 35.3058H111.083V19.8058ZM116.25 62.8613V22.3891H135.195V62.8613H116.25ZM123.139 27.5558C121.712 27.5558 120.556 28.7124 120.556 30.1391C120.556 31.5658 121.712 32.7224 123.139 32.7224H129.167C130.594 32.7224 131.75 31.5658 131.75 30.1391C131.75 28.7124 130.594 27.5558 129.167 27.5558H123.139ZM125.645 59.0189C126.602 59.0189 127.378 58.243 127.378 57.2857C127.378 56.3283 126.602 55.5524 125.645 55.5524C124.688 55.5524 123.912 56.3283 123.912 57.2857C123.912 58.243 124.688 59.0189 125.645 59.0189ZM14.639 118.834C13.2123 118.834 12.0557 119.99 12.0557 121.417C12.0557 122.844 13.2123 124 14.639 124L136.056 124C137.482 124 138.639 122.843 138.639 121.416C138.639 119.99 137.482 118.833 136.056 118.833L14.639 118.834ZM0.00012207 57.6947C0.00012207 56.2679 1.15672 55.1113 2.58346 55.1113H72.3335C73.7602 55.1113 74.9168 56.2679 74.9168 57.6947V74.0558C74.9168 75.4825 73.7602 76.6391 72.3335 76.6391H2.58346C1.15672 76.6391 0.00012207 75.4825 0.00012207 74.0558V57.6947ZM5.16679 60.278V71.4725H69.7501V60.278H5.16679Z" fill="#EB6500"/>
</svg>
