<svg width="36" height="34" viewBox="0 0 36 34" fill="none" xmlns="http://www.w3.org/2000/svg">
<path fill-rule="evenodd" clip-rule="evenodd" d="M31.9156 0.431396H3.90972C1.7615 0.431396 0.0200195 2.21156 0.0200195 4.4075V21.9023C0.0200195 22.9569 0.429827 23.9682 1.15929 24.7139C1.88875 25.4595 2.87811 25.8784 3.90972 25.8784H11.3157L17.3059 33.5324C17.4535 33.7211 17.6771 33.831 17.9134 33.831C18.1498 33.831 18.3734 33.7211 18.521 33.5324L24.5096 25.8784H31.9156C34.0638 25.8784 35.8053 24.0983 35.8053 21.9023V4.4075C35.8053 2.21156 34.0638 0.431396 31.9156 0.431396ZM19.5528 17.1313H9.1154C8.70366 17.1313 8.36987 16.8642 8.36987 16.5348C8.36987 16.2054 8.70366 15.9384 9.1154 15.9384H19.5528C19.9645 15.9384 20.2983 16.2054 20.2983 16.5348C20.2983 16.8642 19.9645 17.1313 19.5528 17.1313ZM9.14981 9.97409H27.8683C28.299 9.97409 28.6482 9.70706 28.6482 9.37767C28.6482 9.04827 28.299 8.78125 27.8683 8.78125H9.14981C8.71906 8.78125 8.36987 9.04827 8.36987 9.37767C8.36987 9.70706 8.71906 9.97409 9.14981 9.97409Z" fill="#002BFF"/>
</svg>
