<svg width="21" height="16" viewBox="0 0 21 16" fill="none" xmlns="http://www.w3.org/2000/svg">
<g id="Iconspace_User 1_25px">
<path id="Path" fill-rule="evenodd" clip-rule="evenodd" d="M19.0821 5.22504C18.4568 5.49774 17.7956 5.678 17.1189 5.76024C17.8328 5.33151 18.3678 4.65705 18.6246 3.86197C17.9537 4.26342 17.2194 4.54626 16.4535 4.69821C15.4005 3.55029 13.709 3.2626 12.339 3.99844C10.969 4.73427 10.2667 6.30773 10.6306 7.82575C7.8875 7.68627 5.33239 6.3822 3.60157 4.23828C3.30139 4.76525 3.14366 5.36204 3.14406 5.9693C3.14189 7.1147 3.71022 8.18516 4.658 8.82087C4.11563 8.80604 3.58484 8.65973 3.11078 8.39439V8.4362C3.11916 10.0652 4.26657 11.4633 5.85585 11.7812C5.5591 11.8719 5.251 11.9198 4.94083 11.9233C4.72612 11.9208 4.51195 11.9012 4.30031 11.8648C4.75032 13.2581 6.02934 14.2115 7.48625 14.2397C6.28608 15.1891 4.80431 15.7072 3.27715 15.7115C2.9991 15.7124 2.72126 15.6956 2.44531 15.6613C4.00453 16.6734 5.82159 17.2106 7.67758 17.2084C10.2648 17.2354 12.7543 16.2158 14.5862 14.3789C16.4181 12.5421 17.4386 10.0421 17.4184 7.44108C17.4184 7.29892 17.4184 7.14839 17.4184 6.99787C18.0711 6.50851 18.6341 5.90861 19.0821 5.22504Z" fill="white"/>
</g>
</svg>
