<svg width="29" height="34" viewBox="0 0 29 34" fill="none" xmlns="http://www.w3.org/2000/svg">
<path d="M11.2646 19.2622H0.739514C0.352191 19.2622 0.0378418 18.9334 0.0378418 18.5282V0.910815C0.0378418 0.505615 0.352191 0.176758 0.739514 0.176758H11.2646C11.6519 0.176758 11.9663 0.505615 11.9663 0.910815V18.5282C11.9663 18.9334 11.6519 19.2622 11.2646 19.2622Z" fill="#002BFF"/>
<path d="M11.2646 33.5764H0.739514C0.352191 33.5764 0.0378418 33.2329 0.0378418 32.8096V23.6076C0.0378418 23.1844 0.352191 22.8408 0.739514 22.8408H11.2646C11.6519 22.8408 11.9663 23.1844 11.9663 23.6076V32.8096C11.9663 33.2329 11.6519 33.5764 11.2646 33.5764Z" fill="#002BFF"/>
<path d="M27.9643 10.9123H17.4392C17.0519 10.9123 16.7375 10.5688 16.7375 10.1455V0.943585C16.7375 0.520297 17.0519 0.176758 17.4392 0.176758H27.9643C28.3516 0.176758 28.666 0.520297 28.666 0.943585V10.1455C28.666 10.5688 28.3516 10.9123 27.9643 10.9123Z" fill="#002BFF"/>
<path d="M27.9643 33.5765H17.4392C17.0519 33.5765 16.7375 33.2476 16.7375 32.8424V15.225C16.7375 14.8198 17.0519 14.491 17.4392 14.491H27.9643C28.3516 14.491 28.666 14.8198 28.666 15.225V32.8424C28.666 33.2476 28.3516 33.5765 27.9643 33.5765Z" fill="#002BFF"/>
</svg>
