<svg width="171" height="170" viewBox="0 0 171 170" fill="none" xmlns="http://www.w3.org/2000/svg">
<circle cx="86.4136" cy="84.9145" r="84.2925" fill="#CFCFD0"/>
<mask id="mask0_206_665" style="mask-type:luminance" maskUnits="userSpaceOnUse" x="0" y="0" width="169" height="169">
<circle cx="84.4624" cy="84.2925" r="84.2925" fill="white"/>
</mask>
<g mask="url(#mask0_206_665)">
<path d="M-36.8823 229.519C-36.8823 229.519 -41.6386 239.682 -47.35 239.696C-53.0615 239.71 -104.668 183.62 -103.285 177.487C-101.902 171.355 -96.48 155.009 -103.126 155.956C-109.772 156.903 -107.75 172.455 -119.977 169.963C-132.205 167.471 -148.726 158.044 -161.967 160.364C-175.208 162.684 -160.172 176.964 -124.483 193.23C-116.889 196.083 -82.0527 277.835 -53.768 279.939C-25.4832 282.043 7.39304 224.338 7.39304 224.338L-36.8823 229.519Z" fill="#F5F6F7"/>
<path fill-rule="evenodd" clip-rule="evenodd" d="M-36.8823 229.519C-36.8823 229.519 -41.6386 239.682 -47.35 239.696C-53.0615 239.71 -104.668 183.62 -103.285 177.487C-101.902 171.355 -96.48 155.009 -103.126 155.956C-109.772 156.903 -107.75 172.455 -119.977 169.963C-132.205 167.471 -148.726 158.044 -161.967 160.364C-175.208 162.684 -160.172 176.964 -124.483 193.23C-116.889 196.083 -82.0527 277.835 -53.768 279.939C-25.4832 282.043 7.39304 224.338 7.39304 224.338L-36.8823 229.519Z" stroke="#111111" stroke-width="4.33409" stroke-linecap="round" stroke-linejoin="round"/>
<path d="M82.1267 158.985C72.7339 165.603 28.2032 224.574 25.5451 236.156C24.8558 238.66 23.7964 241.046 22.402 243.237C13.7074 263.993 -7.64927 324.451 30.8102 340.627C52.013 349.545 141.722 335.293 166.33 313.443C161.941 305.789 156.111 291.036 149.411 262.599C128.297 172.962 91.5191 152.366 82.1267 158.985Z" fill="#ECEDEE"/>
<path fill-rule="evenodd" clip-rule="evenodd" d="M82.1267 158.985C72.7339 165.603 28.2032 224.574 25.5451 236.156C24.8558 238.66 23.7964 241.046 22.402 243.237C13.7074 263.993 -7.64927 324.451 30.8102 340.627C52.013 349.545 141.722 335.293 166.33 313.443C161.941 305.789 156.111 291.036 149.411 262.599C128.297 172.962 91.5191 152.366 82.1267 158.985Z" stroke="#111111" stroke-width="4.33409" stroke-linecap="round" stroke-linejoin="round"/>
<path d="M172.6 302.768C173.291 288.418 177.27 264.522 181.451 255.71L189.393 268.726C189.393 268.726 196.274 161.293 94.4585 147.691C11.8225 136.652 -25.3792 206.661 -25.3792 206.661C-25.3792 206.661 -6.19472 246.138 8.65085 252.445L25.5443 236.155C27.0001 229.813 41.0118 209.261 54.9342 190.876C66.436 175.687 77.8767 161.978 82.1259 158.984C91.5183 152.366 128.294 172.961 149.411 262.598C156.111 291.036 161.941 305.789 166.33 313.443C169.77 310.872 172.03 307.025 172.6 302.768Z" fill="#ECEDEE"/>
<path fill-rule="evenodd" clip-rule="evenodd" d="M172.6 302.768C173.291 288.418 177.27 264.522 181.451 255.71L189.393 268.726C189.393 268.726 196.274 161.293 94.4585 147.691C11.8225 136.652 -25.3792 206.661 -25.3792 206.661C-25.3792 206.661 -6.19472 246.138 8.65085 252.445L25.5443 236.155C27.0001 229.813 41.0118 209.261 54.9342 190.876C66.436 175.687 77.8767 161.978 82.1259 158.984C91.5183 152.366 128.294 172.961 149.411 262.598C156.111 291.036 161.941 305.789 166.33 313.443C169.77 310.872 172.03 307.025 172.6 302.768V302.768Z" stroke="#111111" stroke-width="4.33409" stroke-linecap="round" stroke-linejoin="round"/>
<path d="M70.5637 113.997C70.6781 115.126 69.4095 148.583 69.4095 148.583C69.4095 148.583 41.462 180.494 64.4391 181.972C86.7485 183.408 103.125 152.115 103.125 152.115L103.278 103.356L70.5637 113.997Z" fill="#F5F6F7"/>
<mask id="mask1_206_665" style="mask-type:luminance" maskUnits="userSpaceOnUse" x="55" y="103" width="49" height="80">
<path fill-rule="evenodd" clip-rule="evenodd" d="M70.5637 113.997C70.6781 115.126 69.4095 148.583 69.4095 148.583C69.4095 148.583 41.462 180.494 64.4391 181.972C86.7485 183.408 103.125 152.115 103.125 152.115L103.278 103.356L70.5637 113.997Z" fill="white"/>
</mask>
<g mask="url(#mask1_206_665)">
<path d="M55.3735 145.341C73.943 143 100.515 130.365 100.515 130.365L63.0154 119.068L55.3735 145.341Z" fill="#CFCFD0"/>
</g>
<path fill-rule="evenodd" clip-rule="evenodd" d="M70.5637 113.997C70.6781 115.126 69.4095 148.583 69.4095 148.583C69.4095 148.583 41.462 180.494 64.4391 181.972C86.7485 183.408 103.125 152.115 103.125 152.115L103.278 103.356L70.5637 113.997Z" stroke="#111111" stroke-width="4.33409" stroke-linecap="round" stroke-linejoin="round"/>
<circle cx="83.7597" cy="55.0759" r="10.1765" fill="#111111"/>
<path d="M125.578 72.0925C129.808 70.1323 132.534 65.9149 132.585 61.2529C132.288 55.2741 127.946 50.2711 122.069 49.1357C122.092 48.7634 122.139 48.3989 122.137 48.0188C122.134 42.1053 119.071 36.6147 114.04 33.5058C109.01 30.397 102.729 30.1126 97.4385 32.7541C97.8186 31.6912 98.0171 30.572 98.0258 29.4433C98.0355 25.7937 96.0901 22.4183 92.9273 20.5972C89.7645 18.7761 85.8686 18.7881 82.7171 20.6287C79.5656 22.4693 77.6411 25.8566 77.6733 29.5061C77.6899 30.4492 77.8388 31.3853 78.1158 32.2869C77.9958 32.2847 77.8853 32.2474 77.7643 32.2479C72.7049 32.2583 67.9108 34.5125 64.6754 38.4023C61.416 34.5611 55.8369 33.6826 51.5548 36.3362C47.2727 38.9898 45.5765 44.3769 47.5657 49.0052C44.2533 52.995 42.9291 58.2718 43.9653 63.3527C45.0016 68.4337 48.2863 72.7706 52.8966 75.1446C49.5115 77.6971 48.063 82.0806 49.2609 86.1476C50.4588 90.2145 54.0522 93.113 58.2805 93.423C62.5088 93.733 66.4865 91.3897 68.2648 87.541C70.0431 83.6923 69.2495 79.1444 66.2729 76.1254C69.6338 74.9723 72.5535 72.8037 74.6286 69.9194C79.7082 68.8059 84.76 67.5421 90.1052 66.7767C99.3273 65.4574 105.581 71.3709 110.278 75.4185C107.801 80.1894 109.464 86.0635 114.073 88.829C118.683 91.5945 124.648 90.2969 127.692 85.8666C130.736 81.4363 129.809 75.4024 125.574 72.0912L125.578 72.0925Z" fill="#111111"/>
<path d="M113.545 83.983L113.526 77.9586C108.521 74.7696 101.627 65.1297 90.1089 66.7767C80.0061 68.223 70.9522 71.4575 60.7762 72.0734L60.8147 84.5529C56.9706 86.5464 54.5628 90.5211 54.5762 94.8513C54.5896 99.1816 57.022 103.141 60.8785 105.111L60.8897 108.76C60.919 118.179 65.9713 126.868 74.1435 131.552C82.3156 136.236 92.3661 136.205 100.509 131.47C108.652 126.735 113.65 118.015 113.621 108.596L113.611 105.354C118.081 103.689 121.04 99.415 121.025 94.645C121.01 89.8749 118.025 85.6193 113.545 83.9817V83.983Z" fill="#F5F6F7"/>
<mask id="mask2_206_665" style="mask-type:luminance" maskUnits="userSpaceOnUse" x="54" y="66" width="68" height="70">
<path fill-rule="evenodd" clip-rule="evenodd" d="M113.545 83.983L113.526 77.9586C108.521 74.7696 101.627 65.1297 90.1089 66.7767C80.0061 68.223 70.9522 71.4575 60.7762 72.0734L60.8147 84.5529C56.9706 86.5464 54.5628 90.5211 54.5762 94.8513C54.5896 99.1816 57.022 103.141 60.8785 105.111L60.8897 108.76C60.919 118.179 65.9713 126.868 74.1435 131.552C82.3156 136.236 92.3661 136.205 100.509 131.47C108.652 126.735 113.65 118.015 113.621 108.596L113.611 105.354C118.081 103.689 121.04 99.415 121.025 94.645C121.01 89.8749 118.025 85.6193 113.545 83.9817V83.983Z" fill="white"/>
</mask>
<g mask="url(#mask2_206_665)">
<ellipse opacity="0.27" cx="66.3602" cy="108.963" rx="7.0182" ry="9.21645" transform="rotate(-89.9182 66.3602 108.963)" fill="#CFCFD0"/>
<ellipse opacity="0.27" cx="109.885" cy="109.025" rx="7.0182" ry="9.21645" transform="rotate(-89.9182 109.885 109.025)" fill="#CFCFD0"/>
<rect x="73.687" y="87.4531" width="6.55358" height="12.0874" rx="3.27657" transform="rotate(4.1962 73.687 87.4531)" fill="#111111"/>
<rect x="98.0317" y="87.4214" width="6.55347" height="12.0871" rx="3.27657" transform="rotate(4.19788 98.0317 87.4214)" fill="#111111"/>
<path d="M76.7045 79.9314C69.8926 81.3872 71.4629 85.1574 75.7805 84.5255C80.0981 83.8936 81.1552 78.9801 76.7045 79.9314Z" fill="#111111"/>
<path d="M101.759 79.6647C108.286 82.0991 106.709 85.3579 102.529 84.1019C98.3498 82.8459 97.4955 78.0745 101.759 79.6647Z" fill="#111111"/>
<path d="M90.4661 100.334C90.5528 102.548 88.6241 101.746 86.2863 101.84C83.9485 101.933 82.0879 102.887 81.999 100.673C82.0304 98.4185 83.8194 96.5823 86.0722 96.4922C88.325 96.4021 90.2549 98.0897 90.4661 100.334Z" fill="#CFCFD0"/>
<path d="M58.7482 104.974C66.0512 108.827 87.6293 102.583 87.6293 102.583C87.6293 102.583 105.104 107.732 113.611 105.356C122.118 102.981 114.978 118.393 114.978 118.393L107.904 134.336L54.5762 135.532L49.7095 113.078" fill="white"/>
<path d="M58.8493 104.782C61.0999 105.664 63.52 106.028 65.9304 105.848C68.3608 105.761 70.7831 105.517 73.1822 105.118C77.9868 104.311 82.7351 103.197 87.398 101.785C87.5364 101.744 87.6835 101.74 87.8236 101.776L87.8639 101.786C92.6997 103.05 97.6223 103.954 102.592 104.491C105.031 104.768 107.49 104.829 109.94 104.675C111.12 104.567 112.29 104.362 113.438 104.063C114.215 103.841 115.027 103.771 115.831 103.858C116.318 103.869 116.791 104.021 117.195 104.293C117.662 104.513 118.053 104.867 118.317 105.31C119.103 106.716 119.38 108.35 119.101 109.936C118.925 111.271 118.646 112.589 118.265 113.88C117.508 116.359 116.588 118.786 115.511 121.144L109.612 135.093C109.339 135.74 108.717 136.172 108.015 136.202L107.945 136.204C99.0602 136.572 90.1787 137.01 81.2904 137.165C72.4025 137.37 63.5067 137.199 54.6132 137.149H54.4923C53.7492 137.145 53.1171 136.607 52.994 135.874C51.7284 128.312 50.452 120.753 49.4976 113.124C49.4723 113.007 49.5466 112.891 49.6636 112.866C49.7807 112.841 49.8961 112.915 49.9215 113.032C52.2121 120.371 54.1798 127.781 56.1587 135.188L54.5408 133.913C63.4227 133.465 72.3023 132.895 81.1903 132.701C90.0752 132.457 98.97 132.498 107.862 132.466L106.195 133.577L112.589 119.823C113.683 117.618 114.63 115.343 115.424 113.014C116.277 111.084 116.504 108.935 116.074 106.869C115.903 106.485 115.172 106.361 114.083 106.598C112.775 106.896 111.445 107.086 110.106 107.166C107.507 107.252 104.906 107.108 102.332 106.736C97.2731 106.012 92.2788 104.889 87.3963 103.378H87.8609C83.0807 104.611 78.2266 105.538 73.3282 106.152C70.8749 106.455 68.4045 106.6 65.9325 106.585C63.4284 106.666 60.9385 106.18 58.6486 105.163C58.542 105.109 58.4991 104.979 58.5529 104.872C58.6144 104.771 58.7419 104.732 58.8493 104.782Z" fill="#111111"/>
</g>
<path fill-rule="evenodd" clip-rule="evenodd" d="M113.545 83.983L113.526 77.9586C108.521 74.7696 101.627 65.1297 90.1089 66.7767C80.0061 68.223 70.9522 71.4575 60.7762 72.0734L60.8147 84.5529C56.9706 86.5464 54.5628 90.5211 54.5762 94.8513C54.5896 99.1816 57.022 103.141 60.8785 105.111L60.8897 108.76C60.919 118.179 65.9713 126.868 74.1435 131.552C82.3156 136.236 92.3661 136.205 100.509 131.47C108.652 126.735 113.65 118.015 113.621 108.596L113.611 105.354C118.081 103.689 121.04 99.415 121.025 94.645C121.01 89.8749 118.025 85.6193 113.545 83.9817V83.983Z" stroke="#111111" stroke-width="4.33409" stroke-linecap="round" stroke-linejoin="round"/>
<path fill-rule="evenodd" clip-rule="evenodd" d="M62.4448 84.0935C64.4244 79.2724 69.1133 76.1185 74.3249 76.1026C81.4374 76.0894 87.2188 81.8351 87.2496 88.9475C87.2659 94.1592 84.1411 98.8674 79.3324 100.877C74.5236 102.886 68.978 101.801 65.2814 98.1272C61.5848 94.4534 60.4653 88.9145 62.4448 84.0935ZM64.1533 89.0191C64.1708 94.6587 68.7568 99.2164 74.3964 99.1989C80.0332 99.1746 84.5869 94.5926 84.5763 88.9557C84.5588 83.3161 79.9728 78.7584 74.3332 78.7759C68.6935 78.7934 64.1359 83.3794 64.1533 89.0191Z" fill="#111111"/>
<path fill-rule="evenodd" clip-rule="evenodd" d="M87.6314 88.9466C87.6094 81.8303 93.3604 76.0436 100.477 76.0215C107.589 76.0081 113.371 81.7541 113.402 88.8669C113.424 95.9832 107.673 101.77 100.556 101.792C93.4402 101.814 87.6534 96.0629 87.6314 88.9466ZM91.0946 92.8441C92.6871 96.655 96.4184 99.1313 100.549 99.1183C106.185 99.094 110.739 94.5119 110.728 88.8751C110.715 84.7449 108.216 81.0291 104.395 79.4605C100.574 77.8918 96.1848 78.7791 93.2734 81.7087C90.3621 84.6383 89.5021 89.0332 91.0946 92.8441Z" fill="#111111"/>
<path d="M-53.4434 580.041C-3.64853 619.03 82.0556 592.34 82.0556 592.34C82.0556 592.34 110.263 295.418 77.6751 214.653L64.1527 147.211C64.1527 147.211 40.8786 149.57 29.0535 155.34C-24.9367 359.976 -35.6861 498.796 -53.4434 580.041Z" fill="white"/>
<path fill-rule="evenodd" clip-rule="evenodd" d="M-53.4434 580.041C-3.64853 619.03 82.0556 592.34 82.0556 592.34C82.0556 592.34 110.263 295.418 77.6751 214.653L64.1527 147.211C64.1527 147.211 40.8786 149.57 29.0535 155.34C-24.9367 359.976 -35.6861 498.796 -53.4434 580.041Z" stroke="#111111" stroke-width="4.33409" stroke-linecap="round" stroke-linejoin="round"/>
<path d="M49.2192 605.409C71.8952 622.466 177.772 595.22 177.772 595.22C177.772 595.22 149.412 262.599 154.818 169.462C137.995 160.937 120.747 153.277 103.143 146.511L73.5842 209.427C73.5842 209.427 73.6631 457.577 49.2192 605.409Z" fill="white"/>
<path fill-rule="evenodd" clip-rule="evenodd" d="M49.2192 605.409C71.8952 622.466 177.772 595.22 177.772 595.22C177.772 595.22 149.412 262.599 154.818 169.462C137.995 160.937 120.747 153.277 103.143 146.511L73.5842 209.427C73.5842 209.427 73.6631 457.577 49.2192 605.409Z" stroke="#111111" stroke-width="4.33409" stroke-linecap="round" stroke-linejoin="round"/>
<path d="M68.4175 157.997L62.1851 171.241L71.1826 214.47L97.3952 218.674L111.763 172.503L107.056 156.8L89.7759 159.301L80.0415 158.798L72.3918 159.115" fill="#ECEDEE"/>
<path d="M68.6125 158.089L62.6314 171.449L62.6678 171.141L72.4152 214.214L71.3815 213.227L97.6522 217.061L95.8349 218.188C100.459 202.746 104.723 187.191 109.661 171.847L109.654 173.135C108.078 167.903 106.713 162.607 105.26 157.339L107.323 158.655C101.547 159.377 95.7579 160.006 89.9548 160.543L89.8343 160.554H89.7095C86.4728 160.251 83.237 159.934 80.0046 159.54H80.0731L72.3992 159.331C72.2795 159.336 72.1784 159.243 72.1733 159.124C72.1683 159.004 72.2613 158.903 72.381 158.898L80.0116 158.052H80.0818C83.3371 157.995 86.5885 158.014 89.8391 158.046L89.5955 158.057C95.3134 156.933 101.044 155.896 106.787 154.944C107.68 154.797 108.547 155.325 108.827 156.187L108.851 156.261C110.537 161.462 112.312 166.632 113.876 171.867C113.998 172.288 113.996 172.736 113.869 173.156C109.227 188.593 103.91 203.819 98.9528 219.158L98.9407 219.196C98.6941 219.959 97.9237 220.423 97.1343 220.286L70.9819 215.715L70.9429 215.708C70.4392 215.619 70.0426 215.229 69.9461 214.727L61.7039 171.342C61.6837 171.238 61.6965 171.13 61.7403 171.033L68.2189 157.905C68.2759 157.809 68.3969 157.772 68.4981 157.82C68.5993 157.868 68.6473 157.985 68.609 158.09L68.6125 158.089Z" fill="#111111"/>
<path d="M82.8153 167.843L73.2976 211.96L83.5521 252.48L91.0284 243.235L98.444 211.843L90.751 165.265L82.8153 167.843Z" fill="#111111"/>
<path d="M74.4727 158.151L79.7936 167.927C81.0137 170.273 83.4091 171.773 86.0521 171.847L88.135 171.874C90.743 171.872 93.1486 170.468 94.4329 168.198L99.3881 159.801L86.2289 158.449L74.4727 158.151Z" fill="#111111"/>
<path d="M59.3706 147.822C59.3706 147.822 67.3306 138.096 69.5627 138.153C72.289 146.817 78.2613 154.09 86.229 158.45L75.0839 173.68C75.0839 173.68 54.9988 157.583 59.3706 147.822Z" fill="#ECEDEE"/>
<path fill-rule="evenodd" clip-rule="evenodd" d="M63.7188 142.17C62.1334 143.967 60.6672 145.779 59.1862 147.708C57.7959 150.266 57.6249 153.312 58.7203 156.01C59.6118 158.664 60.8741 161.178 62.4697 163.478C65.6148 167.977 69.4002 171.992 73.7059 175.397L73.7757 175.452L73.8905 175.536C74.3579 175.856 74.9331 175.977 75.4896 175.872C76.0462 175.768 76.5384 175.447 76.8581 174.979L87.5165 159.394L87.5654 159.323L87.6829 159.117C87.8624 158.74 87.8845 158.307 87.7446 157.913C87.6046 157.519 87.314 157.197 86.9366 157.018C83.0487 155.174 79.6085 152.506 76.8546 149.199C74.0258 145.863 71.8028 142.057 70.2863 137.953L70.2135 137.752C70.1198 137.493 69.8486 137.343 69.579 137.401C68.2594 137.767 67.0791 138.518 66.1893 139.558C65.3168 140.397 64.5068 141.276 63.7188 142.17ZM60.9329 155.107C59.5848 152.976 59.0926 150.414 59.5551 147.936C61.0967 146.225 62.7428 144.468 64.4201 142.838C65.2613 142.018 66.1217 141.219 67.0136 140.482C67.6141 139.913 68.3041 139.449 69.0549 139.107C70.3138 143.295 72.3109 147.227 74.9541 150.716C77.3825 153.983 80.3997 156.759 83.8445 158.906L74.7772 170.502C71.4797 167.586 68.3404 164.495 65.3732 161.242C63.6885 159.353 62.2008 157.297 60.9329 155.107ZM74.7772 170.502L73.3084 172.38L76.4598 171.963C75.8945 171.481 75.3336 170.994 74.7772 170.502ZM83.8445 158.906C84.3921 159.248 84.9504 159.573 85.5189 159.882L84.939 157.507L83.8445 158.906ZM69.0549 139.107C69.215 139.034 69.3777 138.967 69.543 138.906L68.8374 138.354C68.9073 138.606 68.9798 138.857 69.0549 139.107Z" fill="#111111"/>
<path d="M113.522 149.199C113.522 149.199 105.995 139.08 103.763 139.023C100.666 147.532 94.377 154.5 86.229 158.45L96.6967 174.23C96.6967 174.23 117.462 159.171 113.522 149.199Z" fill="#ECEDEE"/>
<path fill-rule="evenodd" clip-rule="evenodd" d="M113.817 157.386C115.025 154.745 114.986 151.702 113.711 149.093C112.317 147.091 110.932 145.207 109.424 143.332C108.676 142.398 107.905 141.48 107.07 140.598C106.228 139.513 105.082 138.703 103.779 138.27C103.51 138.198 103.229 138.336 103.123 138.594L103.042 138.792C101.351 142.809 98.9652 146.498 95.9949 149.689C93.1006 152.852 89.5483 155.343 85.5879 156.986L85.3647 157.101C84.6258 157.558 84.3969 158.528 84.8533 159.268L84.8966 159.334L94.8603 175.446L94.9409 175.567C95.628 176.526 96.9626 176.747 97.9219 176.06L97.9882 176.012C102.441 172.825 106.402 169 109.743 164.661C111.441 162.443 112.813 159.993 113.817 157.386ZM108.695 143.967C110.298 145.68 111.866 147.517 113.332 149.304C113.687 151.794 113.087 154.326 111.652 156.392C110.294 158.517 108.719 160.497 106.954 162.299C103.849 165.4 100.578 168.329 97.155 171.074L88.5943 159.021C92.1269 157.052 95.2619 154.432 97.8304 151.293C100.623 147.943 102.79 144.119 104.229 140.006C104.964 140.386 105.632 140.884 106.206 141.482C107.066 142.262 107.89 143.105 108.695 143.967ZM104.229 140.006C104.316 139.758 104.4 139.508 104.482 139.258L103.745 139.778C103.909 139.848 104.071 139.924 104.229 140.006ZM88.5943 159.021L87.5621 157.568L86.8686 159.916C87.4536 159.634 88.029 159.336 88.5943 159.021ZM97.155 171.074C96.5763 171.538 95.9932 171.996 95.4059 172.45L98.5325 173.013L97.155 171.074Z" fill="#111111"/>
<path d="M63.5938 142.16C63.5938 142.16 80.5401 241.947 86.3699 252.48L76.326 265.071L46.4178 202.304L59.8344 191.875L42.8447 186.443L54.3301 150.195C57.0829 147.153 60.1934 144.455 63.5938 142.16Z" fill="white"/>
<path fill-rule="evenodd" clip-rule="evenodd" d="M69.0286 169.821L63.6951 141.968C62.6502 142.336 61.6779 142.884 60.822 143.587C59.9853 144.203 59.1719 144.845 58.3819 145.512C56.7983 146.847 55.2757 148.232 53.7822 149.68C53.7194 149.741 53.6709 149.815 53.64 149.897L53.614 149.967C52.0418 154.183 50.5645 158.429 49.087 162.676C48.4811 164.417 47.8753 166.158 47.2628 167.898C45.1553 173.878 43.1038 179.876 41.1084 185.891C40.7979 186.829 41.3025 187.842 42.2383 188.16L42.2907 188.177L55.3903 192.609L45.0481 200.538C44.2216 201.184 43.9532 202.316 44.4019 203.264C48.9505 212.883 53.638 222.434 58.3255 231.986C58.7435 232.838 59.1615 233.69 59.5794 234.541L74.8693 265.765L74.8866 265.801C75.1318 266.295 75.6135 266.629 76.1623 266.685C76.7112 266.741 77.2504 266.512 77.5906 266.078L87.5183 253.396C87.8625 252.954 87.9295 252.357 87.6917 251.85L87.6535 251.769C85.9454 247.529 84.5779 243.158 83.5639 238.7C82.4366 234.16 81.3526 229.6 80.3428 225.018C78.3274 215.853 76.3807 206.669 74.5026 197.466L69.0286 169.821ZM62.545 143.101C62.9208 142.826 63.2683 142.572 63.4923 142.351C64.4029 148.899 65.5436 155.726 66.6777 162.514C67.0976 165.027 67.5165 167.534 67.9226 170.02L72.7217 197.806C74.3587 207.064 76.0897 216.305 77.9772 225.524C78.9148 230.134 79.9102 234.738 80.9634 239.336C81.8656 243.718 83.1162 248.021 84.7031 252.203L76.703 262.045L63.165 232.832C62.7455 231.925 62.3262 231.018 61.9068 230.111C57.712 221.039 53.517 211.966 49.2056 202.951L61.1349 193.549L61.174 193.519C61.7899 193.034 62.0848 192.246 61.9391 191.476C61.7933 190.706 61.2311 190.08 60.4805 189.853L45.1154 185.224C46.7671 179.746 48.3657 174.25 49.9114 168.738C50.4119 166.965 50.919 165.194 51.426 163.423C52.6515 159.143 53.8771 154.864 55.0106 150.555C56.2977 149.074 57.6443 147.621 59.0338 146.227C59.7521 145.502 60.4926 144.806 61.2554 144.136C61.6212 143.775 62.1027 143.424 62.545 143.101ZM55.0106 150.555C55.0222 150.51 55.0339 150.466 55.0455 150.421L54.8782 150.707C54.9223 150.656 54.9664 150.605 55.0106 150.555ZM45.1154 185.224L43.399 184.707L44.5804 186.992C44.7594 186.403 44.9377 185.813 45.1154 185.224ZM49.2056 202.951C48.9491 202.414 48.6921 201.878 48.4348 201.342L47.789 204.067L49.2056 202.951ZM76.703 262.045L75.0625 264.063L77.7831 264.376L76.703 262.045ZM84.7031 252.203C84.8282 252.533 84.9554 252.862 85.0847 253.19L85.2217 251.565L84.7031 252.203Z" fill="#111111"/>
<path d="M110.297 141.809L76.3259 265.07L126.038 207.148L113.289 192.464L130.456 189.823L119.63 152.367C118.959 147.275 115.267 143.099 110.297 141.809Z" fill="white"/>
<path fill-rule="evenodd" clip-rule="evenodd" d="M113.853 143.077C112.707 142.424 111.476 141.933 110.196 141.617L74.8224 264.656C74.6211 265.357 74.9334 266.104 75.5738 266.453C76.2142 266.802 77.0111 266.66 77.4913 266.111L77.5117 266.088L127.744 208.611C128.476 207.769 128.472 206.515 127.736 205.677L117.404 193.922L130.739 191.65L130.808 191.638L131.024 191.586C131.486 191.445 131.873 191.126 132.1 190.699C132.326 190.273 132.374 189.774 132.233 189.312C132.081 188.816 131.929 188.319 131.777 187.823C130.028 182.105 128.279 176.386 126.431 170.696C125.718 168.497 125.019 166.293 124.319 164.09C123.052 160.1 121.785 156.11 120.442 152.142C120.017 149.573 118.788 147.203 116.93 145.374C116.013 144.472 114.978 143.699 113.853 143.077ZM79.6035 258.763L110.397 142.001C111.45 142.514 112.474 143.085 113.465 143.71C114.464 144.378 115.368 145.178 116.152 146.089C117.678 147.861 118.602 150.071 118.793 152.401L118.815 152.561L118.825 152.6C119.809 156.688 120.87 160.753 121.93 164.818C122.511 167.043 123.092 169.268 123.66 171.497C125.085 177.11 126.603 182.696 128.124 188.282L112.967 190.363C112.203 190.468 111.556 190.982 111.283 191.704C111.009 192.425 111.151 193.239 111.653 193.824L111.684 193.86L123.093 207.162L79.6035 258.763ZM79.6035 258.763L75.1435 264.055L77.8307 265.485L79.6035 258.763ZM123.093 207.162L124.344 208.621L124.335 205.688L123.093 207.162ZM128.124 188.282C128.161 188.418 128.198 188.554 128.235 188.69C128.384 189.239 128.534 189.788 128.683 190.337L130.177 188L128.124 188.282Z" fill="#111111"/>
<path d="M132.622 231.915C144.183 279.437 151.605 327.871 154.802 376.674C153.192 392.905 198.941 390.91 198.941 390.91C198.941 390.91 225.905 211.808 153.134 168.602" stroke="#111111" stroke-width="4.33409" stroke-linecap="round" stroke-linejoin="round"/>
<path d="M47.825 232.253C27.0686 258.242 -28.9544 325.947 -46.3154 322.107C-72.6407 316.283 -122.607 238.178 -122.607 238.178C-116.409 220.572 -102.832 206.551 -85.4345 199.792C-85.4345 199.792 -55.479 227.909 -52.8504 230.681C-42.413 241.69 -22.1841 168.82 30.4509 154.699" fill="white"/>
<path d="M47.825 232.253C27.0686 258.242 -28.9544 325.947 -46.3154 322.107C-72.6407 316.283 -122.607 238.178 -122.607 238.178C-116.409 220.572 -102.832 206.551 -85.4345 199.792C-85.4345 199.792 -55.479 227.909 -52.8504 230.681C-42.413 241.69 -22.1841 168.82 30.4509 154.699" stroke="#111111" stroke-width="4.33409" stroke-linecap="round" stroke-linejoin="round"/>
<path d="M86.8067 48.3883C85.7819 49.6485 84.6796 50.8437 83.5063 51.9669C82.9385 52.4992 82.5753 53.3456 81.7605 53.4349C80.7175 53.5791 79.6557 53.3899 78.7266 52.8944C78.585 52.8289 78.4926 52.6889 78.4878 52.533C78.4597 51.5033 78.8247 50.5017 79.5085 49.7314C80.0451 49.067 81.0333 49.1602 81.8164 48.9387C83.3918 48.4998 84.999 48.1844 86.6234 47.9952C86.7151 47.9845 86.8042 48.0305 86.8486 48.1115C86.8931 48.1925 86.884 48.2923 86.8258 48.364L86.8067 48.3883Z" fill="#111111"/>
</g>
</svg>
