<svg width="289" height="61" viewBox="0 0 289 61" fill="none" xmlns="http://www.w3.org/2000/svg">
<path d="M8.5479 17.141V50.3533C8.5479 50.3533 8.5479 51.423 9.61478 51.423H16.0289C16.0289 51.423 17.0958 51.423 17.0958 50.3533V17.141H25.6437V50.3533C25.6437 51.423 26.7106 51.423 26.7106 51.423H33.1247C34.1916 51.423 34.1916 50.3533 34.1916 50.3533V17.141H42.7395V49.2836C42.7395 50.3533 42.7395 51.4295 41.6726 52.4992L35.2585 58.9303C34.1916 60 33.1183 60 32.0514 60C30.9845 60 29.712 60.1997 27.7775 57.8541L22.4366 51.423C22.4366 51.423 21.3698 50.3533 20.2964 51.423L14.9556 57.8541C12.8154 60 11.7485 60 10.6817 60C9.61478 60 8.54148 60 7.47459 58.9303L1.06688 52.4927C0 51.423 0 50.3469 0 49.2772V17.141H8.5479Z" fill="#F1F2F2"/>
<path d="M90.8199 33.2123L70.517 41.7828C68.3768 42.8525 66.243 42.8525 66.243 42.8525H60.9022C59.8353 42.8525 59.8353 43.9222 59.8353 43.9222V50.3533C59.8353 51.423 60.9022 51.423 60.9022 51.423H94.0269V59.9935H79.0649C79.0649 59.9935 76.9247 59.9935 74.7909 58.9238L54.4881 50.3533C52.3479 49.2836 51.281 47.1378 51.281 44.9984V27.8573C51.281 26.7876 51.281 25.7115 52.3479 24.6418L58.762 18.2107C59.8289 17.141 60.9022 17.141 61.9691 17.141H83.3388C84.4057 17.141 85.479 17.141 86.5459 18.2107L92.9601 24.6418C94.0269 25.7115 94.0269 26.517 94.0269 27.8573C94.0269 30.0032 92.9601 32.1426 90.8199 33.2123ZM84.4057 25.7115H60.8958C59.8289 25.7115 59.8289 26.7812 59.8289 26.7812V33.2123C59.8289 34.282 60.8958 34.282 60.8958 34.282H84.4057C85.4726 34.282 85.4726 33.2123 85.4726 33.2123V26.7812C85.4726 26.7812 85.4726 25.7115 84.4057 25.7115Z" fill="#F1F2F2"/>
<path d="M117.273 27.8573C117.273 26.7876 117.273 25.7115 118.34 24.6418L124.754 18.2107C125.821 17.141 126.895 17.141 127.961 17.141H142.923V25.7115H126.895C126.895 25.7115 125.828 25.7115 125.828 26.7812V59.9935H117.28V27.8573H117.273Z" fill="#F1F2F2"/>
<path d="M115.056 10.2653V13.1715C115.056 13.1715 115.056 14.2412 113.989 14.2412H111.091V22.8117H112.922C113.989 22.8117 115.062 22.8117 116.129 21.742L122.543 15.3109C123.61 14.2412 123.61 13.1651 123.61 12.0954V10.2589H115.062L115.056 10.2653Z" fill="#EB6500"/>
<path d="M168.323 16.0713V0H159.775V17.141H167.256C167.256 17.141 167.282 17.141 167.32 17.141H168.323V16.0713Z" fill="#F1F2F2"/>
<path d="M168.323 25.7115H185.419V17.141H168.323V25.7115H159.775V49.2836C159.775 50.4242 159.775 51.4295 160.842 52.4992L167.256 58.9303C168.323 60 169.396 60 170.463 60H185.425V51.4295H169.396C169.396 51.4295 168.329 51.4295 168.329 50.3598V26.7812C168.329 25.8082 168.329 25.7179 168.329 25.7115H168.323Z" fill="#F1F2F2"/>
<path d="M233.506 33.2123L213.203 41.7828C211.062 42.8525 208.929 42.8525 208.929 42.8525H203.588C202.521 42.8525 202.521 43.9222 202.521 43.9222V50.3533C202.521 51.423 203.588 51.423 203.588 51.423H236.713V59.9935H221.751C221.751 59.9935 219.61 59.9935 217.477 58.9238L197.174 50.3533C195.034 49.2836 193.967 47.1378 193.967 44.9984V27.8573C193.967 26.7876 193.967 25.7115 195.034 24.6418L201.448 18.2107C202.515 17.141 203.588 17.141 204.655 17.141H226.025C227.091 17.141 228.165 17.141 229.232 18.2107L235.646 24.6418C236.713 25.7115 236.713 26.517 236.713 27.8573C236.713 30.0032 235.646 32.1426 233.506 33.2123ZM227.091 25.7115H203.581C202.515 25.7115 202.515 26.7812 202.515 26.7812V33.2123C202.515 34.282 203.581 34.282 203.581 34.282H227.091C228.158 34.282 228.158 33.2123 228.158 33.2123V26.7812C228.158 26.7812 228.158 25.7115 227.091 25.7115Z" fill="#F1F2F2"/>
<path d="M279.452 39.637L285.866 44.9919C288.006 47.1378 288.006 48.2075 288.006 49.2772V59.9936H279.458V43.9222C279.458 43.9222 279.458 42.8525 278.392 42.8525H254.882C253.815 42.8525 253.815 43.9222 253.815 43.9222V59.9936H245.267V0H253.815V33.2123C253.815 34.282 254.882 34.282 254.882 34.282H278.392C278.996 34.282 279.458 33.8116 279.458 33.2123V17.141H288.006V27.8574C288.006 28.9271 288.006 30.0032 285.866 32.1426L279.452 37.4976C278.385 38.5673 279.452 39.6434 279.452 39.6434V39.637Z" fill="#F1F2F2"/>
</svg>
