<svg width="13" height="20" viewBox="0 0 13 20" fill="none" xmlns="http://www.w3.org/2000/svg">
<path fill-rule="evenodd" clip-rule="evenodd" d="M1.33802 8.76256C0.654605 9.44598 0.654605 10.554 1.33802 11.2374L8.76264 18.6621C9.44606 19.3455 10.5541 19.3455 11.2375 18.6621C11.9209 17.9786 11.9209 16.8706 11.2375 16.1872L5.05033 10L11.2375 3.81282C11.9209 3.1294 11.9209 2.02136 11.2375 1.33794C10.5541 0.654525 9.44606 0.654525 8.76264 1.33794L1.33802 8.76256Z" fill="#EB6500"/>
<path d="M5.05033 10L4.69678 9.64645L4.34323 10L4.69678 10.3536L5.05033 10ZM1.69158 10.8839C1.20342 10.3957 1.20342 9.60427 1.69158 9.11612L0.984469 8.40901C0.10579 9.28769 0.10579 10.7123 0.984469 11.591L1.69158 10.8839ZM9.1162 18.3085L1.69158 10.8839L0.984469 11.591L8.40909 19.0156L9.1162 18.3085ZM10.884 18.3085C10.3958 18.7967 9.60435 18.7967 9.1162 18.3085L8.40909 19.0156C9.28777 19.8943 10.7124 19.8943 11.5911 19.0156L10.884 18.3085ZM10.884 16.5407C11.3721 17.0289 11.3721 17.8203 10.884 18.3085L11.5911 19.0156C12.4698 18.1369 12.4698 16.7123 11.5911 15.8336L10.884 16.5407ZM4.69678 10.3536L10.884 16.5407L11.5911 15.8336L5.40389 9.64645L4.69678 10.3536ZM10.884 3.45926L4.69678 9.64645L5.40389 10.3536L11.5911 4.16637L10.884 3.45926ZM10.884 1.6915C11.3721 2.17965 11.3721 2.97111 10.884 3.45926L11.5911 4.16637C12.4698 3.28769 12.4698 1.86307 11.5911 0.984389L10.884 1.6915ZM9.1162 1.6915C9.60435 1.20334 10.3958 1.20334 10.884 1.6915L11.5911 0.984389C10.7124 0.105709 9.28777 0.105709 8.40909 0.984389L9.1162 1.6915ZM1.69158 9.11612L9.1162 1.6915L8.40909 0.984389L0.984469 8.40901L1.69158 9.11612Z" fill="black"/>
</svg>
